<?xml version="1.0" encoding="utf-8"?>
<!-- Generator: Adobe Illustrator 25.2.0, SVG Export Plug-In . SVG Version: 6.00 Build 0)  -->
<svg version="1.1" id="Layer_1" xmlns="http://www.w3.org/2000/svg" xmlns:xlink="http://www.w3.org/1999/xlink" x="0px" y="0px"
	 width="150px" height="80px" viewBox="0 0 150 80" style="enable-background:new 0 0 150 80;" xml:space="preserve">
<style type="text/css">
	.st0{fill:#EF7D00;}
	.st1{fill:#5A5A59;}
</style>
<g>
	<path class="st0" d="M60.4,47.5V10h4.7v37.4L60.4,47.5L60.4,47.5z M49.5,47.5V24.7h4.8v22.8H49.5z M48.9,17.6c0-3.6,5.9-3.9,5.9,0
		C54.9,21.4,48.9,21.4,48.9,17.6z M29.7,47.5V10h4.8v16.6c1.8-3.5,9.2-4.7,9.2,2.9v17.9H39V30c0-3.2-4.7-3.2-4.7,0.7v16.6L29.7,47.5
		C29.7,47.3,29.7,47.5,29.7,47.5z M10.8,41.3c3.6,3.6,8.2,2.4,8.6-1.8c0.7-8.6-9.5-7.8-9.5-18.6c0-3.4,2.4-10.9,12.7-7v4.7
		c-5.4-3.6-8.2,0-8.2,2.9c0,6.5,9.7,7.8,10.1,17.5c0,6.5-6.1,12.1-13.6,7.4C10.8,46.3,10.8,41.3,10.8,41.3z M78.4,27.9L78.4,27.9
		c-2.6,0-3,3.2-3,8.2c0,3.6,0.3,7.8,2.9,7.8h0.1c2.1,0,3.1-3.2,2.8-8.2C81.1,31.8,80.5,27.9,78.4,27.9z M78.4,47.3L78.4,47.3
		c-1.2-0.4-2.3-1.5-2.6-2.8v11.8h-4.2V24.7h4.2v2.9c0.4-1.5,1.5-2.4,2.6-3.1c3-1.5,7.4,0.8,7.4,11.3C85.9,46.7,81.3,48.7,78.4,47.3z
		 M111.2,47.5V24.7h4.8v2.4c2.1-4.2,9.2-4.7,9.2,2.9v17.5h-4.7V30.6c0-3.6-4.7-3.6-4.7,0v16.6h-4.7L111.2,47.5L111.2,47.5z
		 M98.2,44.2c1.5,0,3.2-3.2,2.9-8.2c0-3.9-0.3-7.8-2.9-7.8l0,0c-2.4,0-2.9,3.2-2.9,8.2C95.3,40.1,95.3,44.2,98.2,44.2L98.2,44.2z
		 M98.2,47.3L98.2,47.3c-2.9,1.9-6.6-0.1-7.1-9.8c-0.5-12,4-14.4,7.1-12.8c1.1,0.4,2,1.6,2.4,2.9v-2.9h4.2v22.8h-4.2v-3.2
		C100.1,45.6,99.2,46.7,98.2,47.3z"/>
	<path class="st1" d="M131.5,18h1.1c0.7,0,1.3,0,1.6-0.1c0.3-0.1,0.3-0.3,0.4-0.3c0.1-0.3,0.3-0.3,0.3-0.7c0-0.3-0.1-0.4-0.3-0.7
		c-0.3-0.3-0.3-0.3-0.7-0.3c-0.1,0-0.5,0-1.1,0h-1.3C131.5,16,131.5,18,131.5,18z M129.9,22.5v-7.9h3.4c0.8,0,1.6,0.1,1.9,0.3
		c0.3,0.3,0.7,0.3,0.9,0.7c0.2,0.3,0.3,0.8,0.3,1.3c0,0.7-0.3,1.1-0.5,1.6c-0.3,0.3-0.8,0.7-1.6,0.7c0.3,0.3,0.7,0.4,0.8,0.7
		c0.3,0.3,0.5,0.7,0.9,1.3l1,1.6h-1.9l-1.1-1.8c-0.4-0.7-0.7-1-0.8-1.1c-0.3-0.3-0.3-0.3-0.4-0.3c-0.3-0.1-0.4-0.1-0.8-0.1h-0.3v3.4
		H130L129.9,22.5L129.9,22.5z M137.3,13.9c-0.5-0.5-1.1-1-2-1.3c-0.7-0.3-1.6-0.4-2.3-0.4c-0.8,0-1.6,0.3-2.3,0.4
		c-0.7,0.3-1.5,0.7-2,1.3c-0.5,0.5-1,1.1-1.3,2c-0.3,0.7-0.4,1.6-0.4,2.3c0,0.8,0.3,1.6,0.4,2.3c0.3,0.7,0.7,1.5,1.3,2
		c0.5,0.5,1.1,1,2,1.3c0.7,0.3,1.6,0.4,2.3,0.4c0.8,0,1.6-0.3,2.3-0.4c0.8-0.3,1.5-0.7,2-1.3c0.5-0.5,1-1.1,1.3-2
		c0.3-0.7,0.4-1.6,0.4-2.3c0-0.8-0.3-1.6-0.4-2.3C138.4,15.3,137.9,14.6,137.3,13.9z M133.1,11.2c0.9,0,1.9,0.3,2.6,0.5
		c0.8,0.3,1.6,0.8,2.3,1.6c0.7,0.8,1.1,1.5,1.6,2.3c0.3,0.8,0.5,1.6,0.5,2.6c0,1-0.3,1.9-0.5,2.6c-0.3,0.8-0.8,1.6-1.6,2.3
		c-0.7,0.7-1.5,1.1-2.3,1.6c-0.8,0.4-1.6,0.5-2.6,0.5s-1.9-0.3-2.6-0.5c-0.8-0.3-1.6-0.8-2.3-1.6c-0.7-0.7-1.1-1.5-1.6-2.3
		c-0.3-0.8-0.5-1.6-0.5-2.6c0-1,0.3-1.9,0.5-2.6c0.3-0.8,0.8-1.6,1.6-2.3c0.7-0.7,1.5-1.1,2.3-1.6C131.4,11.5,132.2,11.2,133.1,11.2
		z"/>
	<path class="st1" d="M121,59.7l-6.2,5.8v2.1h7.7v2.3h2.6v-2.3h1.6v-1.5H125v-6.5L121,59.7L121,59.7L121,59.7z M116.9,66.2l5.5-5.1
		h0.1v5.1H116.9z M107.9,69.8c1.9,0,3.5-0.1,4.3-0.9c1-0.8,1-2.1,1-3.1v-2c0-1.5-0.3-2.7-1-3.2c-0.8-0.7-2.3-0.9-4.3-0.9
		c-1.6,0-3.4,0-4.8,0.5c-1.2,0.7-1.3,2.1-1.3,3.2v2.3c0,1.1,0,2.6,1.2,3.4C104,69.7,105.6,70,107.9,69.8z M107.7,61.2
		c1.8,0,2.3,0.1,2.8,0.4c0.3,0.3,0.4,0.5,0.4,1.9v2.8c0,0.8-0.1,1.2-0.4,1.6c-0.4,0.4-1.1,0.4-3,0.4c-1.6,0-2.3-0.1-2.7-0.3
		c-0.3-0.3-0.4-0.8-0.4-1.8v-2.6c0-1.6,0.3-1.9,0.7-2.1C105.3,61.2,106,61.2,107.7,61.2z M94.7,69.8c1.9,0,3.5-0.1,4.3-0.9
		c1-0.8,1-2.1,1-3.1v-2c0-1.5-0.3-2.7-1-3.2c-0.8-0.7-2.3-0.9-4.3-0.9c-1.6,0-3.4,0-4.8,0.5c-1.2,0.7-1.3,2.1-1.3,3.2v2.3
		c0,1.1,0,2.6,1.2,3.4C90.9,69.7,92.3,70,94.7,69.8z M94.5,61.2c1.8,0,2.3,0.1,2.8,0.4c0.3,0.3,0.4,0.5,0.4,1.9v2.8
		c0,0.8-0.1,1.2-0.4,1.6c-0.4,0.4-1.1,0.4-3,0.4c-1.6,0-2.3-0.1-2.7-0.3s-0.4-0.8-0.4-1.8v-2.6c0-1.6,0.3-1.9,0.7-2.1
		C92.2,61.2,92.7,61.2,94.5,61.2z M76.6,65.5c-0.7,0.4-0.9,1.3-0.9,2.3v2h10.8v-1.6h-8.2c0-0.3,0-0.4,0-0.7c0-1.2,2.1-1.2,3.4-1.3
		c1.1-0.1,2.7-0.3,3.6-0.8c1-0.5,1-1.8,1-2.6c0-2-0.8-3.1-5.3-3.1c-3.4,0-5.4,0.4-5.5,2.7c0,0.3,0,0.7,0,1h2.6c0-0.3,0-0.4,0-0.7
		c0-0.5,0.1-0.9,0.5-1.1c0.4-0.3,1.2-0.3,2.3-0.3c1.2,0,1.9,0.1,2.1,0.3c0.4,0.3,0.4,0.9,0.4,1.3c0,0.5-0.1,0.9-0.3,1.1
		c-0.4,0.3-1.2,0.4-2.7,0.5C79.5,64.8,77.6,65,76.6,65.5z M57.4,69.8h9.7v-1.6h-6.9v-2.7h6.6v-1.6h-6.6v-2.6h6.9v-1.6h-9.6v10.1
		h-0.1V69.8z M52.8,63.2h2.7c0-0.8,0-2.1-1-2.8c-1-0.5-2.8-0.5-4.5-0.5s-3.8,0.1-4.9,1c-1,0.9-1,2.1-1,4.2s0,3.4,1.1,4.2
		c0.7,0.5,2,0.8,4,0.8c0.8,0,1.8,0,2.7-0.1c1.1,0,2.1-0.3,2.8-0.5c0.8-0.5,1-1.3,1-2.3c0-0.1,0-0.3,0-0.3v-0.5h-2.7
		c0,0.7,0,1.2-0.4,1.6c-0.3,0.3-0.7,0.3-1,0.3c-0.4,0-0.8,0-1.6,0c-1,0-2,0-2.6-0.3c-0.5-0.3-0.7-1-0.7-1.9v-2.7
		c0-0.7,0.1-1.3,0.5-1.8c0.4-0.3,1-0.4,2.6-0.4c0.1,0,0.3,0,0.3,0c0.9,0,2,0,2.3,0.3c0.3,0.3,0.4,0.5,0.4,0.9L52.8,63.2L52.8,63.2z
		 M29,59.7v10.1h2.8l-0.1-4.2l-0.1-4.2h0.1l5.9,8.5h4.5v-10h-2.7l0.3,8.5h-0.2l-6.1-8.5L29,59.7L29,59.7z M23.9,59.7v10.1h2.7V59.7
		H23.9z M16,59.6c-1.6,0-3.2,0.1-4.2,0.5c-0.7,0.4-1.1,1.1-1,2.3c0,0.8,0.3,1.8,1.1,2.3c1.1,0.5,3.4,0.5,4.9,0.7c1,0,1.8,0,2.3,0.3
		c0.3,0.3,0.3,0.5,0.3,1c0,0.4,0,1-0.5,1.2c-0.4,0.3-1.3,0.3-2.4,0.3c-0.3,0-0.3,0-0.5,0c-0.9,0-1.6,0-2-0.3
		c-0.3-0.3-0.3-0.5-0.4-1.1c-0.1,0-0.1-0.1-0.1-0.1h-3c0,1,0,2,1,2.7c1,0.4,2.8,0.4,3.9,0.4c0.3,0,0.7,0,1,0c1.5,0,3.1,0,4-0.5
		c0.8-0.4,1.2-1.3,1.2-2.4c0-0.7,0-1.8-1-2.3c-0.9-0.4-3-0.5-4.3-0.5c-1,0-2.1,0-2.7-0.3c-0.3-0.3-0.3-0.7-0.4-1.1
		c0-0.5,0.1-0.8,0.4-1c0.3-0.3,1-0.3,2.1-0.3c0.4,0,0.8,0,1.1,0c0.9,0,1.3,0,1.8,0.3c0.3,0.3,0.3,0.4,0.3,0.8c0,0.1,0,0.3,0,0.3h2.7
		c0-0.9-0.1-1.9-1.1-2.4c-0.4-0.3-1.1-0.4-2-0.5C17.9,59.6,16.9,59.6,16,59.6z"/>
</g>
</svg>
