<?xml version="1.0" encoding="utf-8"?>
<!-- Generator: Adobe Illustrator 25.2.0, SVG Export Plug-In . SVG Version: 6.00 Build 0)  -->
<svg version="1.1" id="Layer_1" xmlns="http://www.w3.org/2000/svg" xmlns:xlink="http://www.w3.org/1999/xlink" x="0px" y="0px"
	 width="140px" height="55.2px" viewBox="0 0 140 55.2" style="enable-background:new 0 0 140 55.2;" xml:space="preserve">
<style type="text/css">
	.st0{fill:#FFFFFF;}
	.st1{fill-rule:evenodd;clip-rule:evenodd;fill:#F47D35;}
</style>
<g>
	<path class="st0" d="M114.4,54.8V43.4h4.2c0.7,0,1.2,0,1.5,0.1c0.3,0,0.7,0.2,0.9,0.3c0.5,0.2,0.8,0.6,1,1.1s0.4,1,0.4,1.7
		c0,0.6-0.1,1.2-0.4,1.7s-0.6,0.9-1.1,1.1c-0.3,0.1-0.6,0.3-0.9,0.3c-0.4,0-0.9,0.1-1.8,0.1h-2.3v4.7L114.4,54.8L114.4,54.8z
		 M115.9,48.6h2.6c0.9,0,1.5-0.1,1.8-0.4c0.3-0.3,0.5-0.8,0.5-1.5s-0.2-1.1-0.5-1.4c-0.3-0.3-0.9-0.4-1.8-0.4h-2.6V48.6L115.9,48.6z
		 M103.2,50.4v-7h1.5v7c0,1,0.2,1.8,0.7,2.3s1.2,0.8,2.2,0.8c0.9,0,1.7-0.2,2.2-0.8c0.5-0.5,0.7-1.3,0.7-2.3v-7h1.5v7
		c0,1.5-0.4,2.7-1.2,3.4c-0.8,0.8-1.9,1.2-3.4,1.2c-1.4,0-2.5-0.4-3.2-1.1C103.6,53.1,103.2,52,103.2,50.4z M90.7,49.1
		c0-1.8,0.5-3.3,1.4-4.4c0.9-1.1,2.3-1.6,3.9-1.6c1.7,0,3,0.5,3.9,1.6s1.4,2.5,1.4,4.4c0,1.8-0.5,3.3-1.4,4.4
		c-0.9,1.1-2.2,1.6-3.9,1.6c-1.7,0-3-0.5-3.9-1.6S90.7,51,90.7,49.1z M92.3,49.1c0,1.4,0.3,2.6,1,3.4s1.6,1.2,2.7,1.2
		c1.2,0,2.1-0.4,2.7-1.2c0.7-0.8,1-1.9,1-3.4s-0.3-2.6-1-3.4c-0.7-0.8-1.6-1.2-2.7-1.2c-1.2,0-2.1,0.4-2.7,1.2
		C92.6,46.5,92.3,47.6,92.3,49.1z M80.8,43.4h4.4c0.7,0,1.2,0,1.6,0.1c0.3,0,0.6,0.1,0.9,0.3c0.5,0.3,0.9,0.6,1.1,1.1s0.4,1,0.4,1.7
		c0,0.6-0.1,1.1-0.4,1.6c-0.3,0.4-0.7,0.8-1.2,1c0.4,0.1,0.8,0.3,0.9,0.6c0.2,0.3,0.3,0.8,0.3,1.5l0.1,1.8c0,0.4,0.1,0.7,0.1,0.9
		c0.1,0.2,0.2,0.3,0.3,0.4v0.3h-1.8c-0.1-0.2-0.2-0.8-0.3-1.5l0,0l-0.1-1.5c0-0.8-0.2-1.2-0.5-1.5c-0.3-0.2-0.9-0.3-2-0.3h-2.5v4.8
		h-1.5V43.4H80.8z M82.3,44.8v3.8h2.6c0.9,0,1.6-0.1,2-0.5c0.4-0.3,0.6-0.8,0.6-1.5s-0.2-1.1-0.6-1.4s-1-0.4-2-0.4L82.3,44.8
		L82.3,44.8z M77.3,53.3c-0.5,0.6-1,1-1.7,1.4c-0.6,0.3-1.3,0.5-2.2,0.5c-1.5,0-2.7-0.6-3.7-1.6c-0.9-1.1-1.4-2.5-1.4-4.3
		s0.5-3.3,1.5-4.4c1-1.1,2.3-1.6,4-1.6c1.3,0,2.3,0.3,3.1,1c0.8,0.7,1.3,1.6,1.5,2.7h-1.5c-0.1-0.8-0.5-1.3-1-1.8
		c-0.5-0.4-1.2-0.6-2.1-0.6c-1.2,0-2.2,0.4-2.8,1.2c-0.7,0.8-1,1.9-1,3.4c0,1.4,0.3,2.6,1,3.4c0.7,0.8,1.6,1.2,2.7,1.2
		c1,0,1.9-0.3,2.6-0.9c0.6-0.7,0.9-1.5,0.9-2.6v-0.1h-3.5v-1.3h4.9V55h-1L77.3,53.3z"/>
	<path class="st1" d="M106.1,29.4c-1.6,0.9-2.9,2.1-4.3,3.6c-0.9,0.9-1.6,2.7-0.8,4.3c1.5,0.7,3,0.1,4.3-0.5
		c1.8-0.9,3.1-2.1,4.5-3.6C111.8,30.1,109.8,28,106.1,29.4 M106.3,23.4c3.2-2.2,5.5-1.5,6.5,3.4c-2.5-1.8-4.2-2-7.1-0.7
		c-2.4,1.7-4.8,3.9-6.9,7.2c-1.8,2.7-2.6,10.1,5.1,7.3c2.4-1.2,4.9-2.9,7.1-5c-0.2,0.4-0.1,0.7,0.1,1c2.5-2.5,3.6-5.5,4.2-8.7
		c0.5-4.4-0.9-7.1-3.6-8.5c-2.9-1.1-5.8,0-6.9,2.2C104.4,23.4,104.8,24,106.3,23.4z M15,8.7c2.9,1.6,4.5-0.2,2.7-1.7
		C14.8,5,8.9,5.4,5.9,6.6c-7,3-7.8,7.6-2.3,10.7c3.6,1.8,7.4,2.9,10.7,4.3c7.2,3.8,0.5,7.9-3.8,10c-2.6-2.1-8.2-0.7-8,3.2
		c4,0.4,7.9-0.2,11.7-1.8c6-2.8,10.2-8.1,4.2-11.8c-3.1-1.9-7.7-2.8-11.3-4.6c-5.4-2.3-3.8-5.1-0.9-7C8.1,8,12.4,7.3,15,8.7z
		 M33.4,9.4c-3,7.6-6.2,14.5-9.7,21.5c-0.9,1.8-2,3.5-0.8,4.6c1.1,0.5,2.7-1.2,3.8-2.8c2.4-3,5.1-6.3,7.5-8.8
		c-0.9,2.6-1,4.7-1.3,7.6c-0.2,5.7,5.6,5,8.2,1.7c-1.8-0.9-5.5,1.7-5.3-2.9c0.6-4.1,0.9-6.3,2-9c0.7-1,1.2-1.9,0.5-2.6
		c-0.8-0.5-1.5-0.3-2.2,0.2c-2.7,2.4-5.4,5.2-8.1,7.6c2.3-5.5,4.7-11.1,7.1-16.4C35.8,8.6,34.1,7.6,33.4,9.4z M50.2,28.2
		c-0.5,1.4-1.8,0.9-2.2,0.1c-0.7-1.4-1-2.7-1.7-4c-1.1-1.7-4.2-0.6-3.6,1.9c1,1.8,1.9,3.5,2.9,5.4c0.6,0.9,0.7,2.3,0.3,3.3
		c-3.6,6-6.1,11.8-9.2,17.7c-0.9,2.5,2.6,3.2,3.3,0.8c4.8-11,10.8-21.5,18.3-31.6c1-2.1-1.7-2.9-3.2-2C53.2,22.8,52,25.2,50.2,28.2z
		 M65.5,28.2c-1.6,0.9-2.9,2.1-4.3,3.6c-0.9,0.9-1.6,2.7-0.8,4.3c1.5,0.7,3,0.1,4.3-0.5c1.8-0.9,3.1-2.1,4.5-3.6
		C71.1,28.8,69.2,26.7,65.5,28.2z M65.6,22.1c3.2-2.2,5.5-1.5,6.5,3.4c-2.5-1.8-4.2-2-7.1-0.7c-2.4,1.7-4.8,3.9-6.9,7.2
		c-1.8,2.7-2.6,10.1,5.1,7.3c2.4-1.2,4.9-2.9,7.1-5c-0.2,0.4-0.1,0.7,0.2,1c2.5-2.5,3.6-5.5,4.2-8.7c0.5-4.4-0.9-7.1-3.6-8.5
		c-2.9-1.1-5.8,0-6.9,2.2C63.8,22.1,64.2,22.8,65.6,22.1z M95,17.9c-1-0.9-2.7-0.1-3.3,1.4c-1.3,3.7-3.2,6.9-5.8,9.9
		c-2,0-0.5-6.9-0.7-10.8c-1.2-1.4-2.3-0.9-3.5,0.5c-0.8,1.8-0.9,4.3-2.2,5.6c-0.1-0.9,0.1-2.3-0.4-3c-0.9-0.7-1.8-0.7-2.4,0.4
		c-0.1,4.8-0.3,9.1-0.4,13.8c0.3,1.4,2.8,0.9,3.4-2.6c0.2-2,0.6-4.4,1.1-6.1c0.6-1.6,1.3-1.6,1.7-0.2c0.2,1.9,0.4,3.3,0.6,5.2
		c0.3,1.5,1.8,1.5,2.9,0.5c1.7-1.9,3.3-3.9,4.9-5.9c0,2.9-0.1,5.9-0.2,8.8c0.9,3.4,3.8,3.9,5.6,1.7c-1.7-0.5-2.6-1.8-2.3-4.4
		c0.1-3.3,0.2-6.7,0.4-10C94.7,20.7,94.7,19.7,95,17.9z M126.8,7c-2.8,9.5-6.5,17.9-9.9,26.9c-1.8,4.2,1.5,5.4,3.2,1.2
		c2.9-8.9,5.8-17.5,9.5-26.1C130.8,5.6,128,4.1,126.8,7z"/>
	<path class="st0" d="M138.2,1.7c-0.8-0.8-1.8-1.2-2.9-1.2c-1.1,0-2.2,0.5-2.9,1.2s-1.2,1.8-1.2,2.9s0.5,2.2,1.2,2.9
		s1.8,1.2,2.9,1.2s2.2-0.5,2.9-1.2s1.2-1.8,1.2-2.9S139,2.4,138.2,1.7 M133.9,4.3h1.6c0.3,0,0.6,0,0.8-0.1c0.2,0,0.3-0.2,0.4-0.3
		c0.1-0.1,0.1-0.3,0.1-0.5s-0.1-0.5-0.3-0.6c-0.2-0.2-0.5-0.2-0.9-0.2h-1.8L133.9,4.3L133.9,4.3z M133.1,7.4V1.9h2.4
		c0.5,0,0.9,0,1.1,0.1c0.2,0.1,0.5,0.3,0.6,0.5s0.2,0.5,0.2,0.8c0,0.4-0.1,0.7-0.4,1c-0.2,0.3-0.7,0.4-1.2,0.5
		c0.2,0.1,0.3,0.2,0.4,0.3c0.2,0.2,0.4,0.4,0.6,0.7l0.9,1.5h-0.9l-0.7-1.1c-0.2-0.3-0.4-0.6-0.5-0.8s-0.2-0.3-0.4-0.4
		c-0.1-0.1-0.2-0.1-0.3-0.1s-0.2,0-0.4,0h-0.9v2.4L133.1,7.4L133.1,7.4z M135.3,0c1.3,0,2.5,0.5,3.3,1.4c0.9,0.9,1.4,2,1.4,3.3
		s-0.5,2.5-1.4,3.3c-0.9,0.9-2,1.4-3.3,1.4S132.8,8.9,132,8c-0.9-0.9-1.4-2-1.4-3.3s0.5-2.5,1.4-3.3C132.8,0.5,134,0,135.3,0z"/>
</g>
</svg>
