<svg width="248" height="114" viewBox="0 0 248 114" fill="none" xmlns="http://www.w3.org/2000/svg">
<rect x="17" y="5" width="210" height="100" fill="#E80000"/>
<mask id="mask0_93_1615" style="mask-type:alpha" maskUnits="userSpaceOnUse" x="0" y="0" width="248" height="114">
<rect width="248" height="114" fill="#E90000"/>
</mask>
<g mask="url(#mask0_93_1615)">
<mask id="mask1_93_1615" style="mask-type:luminance" maskUnits="userSpaceOnUse" x="-17" y="-87" width="288" height="288">
<path d="M271 -87H-17V201H271V-87Z" fill="white"/>
</mask>
<g mask="url(#mask1_93_1615)">
<path d="M138.191 47.387H144.499C144.499 47.387 145.277 44.438 145.766 42.847H153.757C154.224 44.371 155.024 47.387 155.024 47.387H161.331L161.065 46.438C157.414 33.394 152.04 24.621 152.04 24.621H147.483C147.483 24.621 142.282 32.782 138.459 46.438L138.191 47.387ZM149.775 31.832C150.832 33.87 151.794 36.296 152.216 38.164H147.328C147.771 36.447 148.765 33.855 149.775 31.832Z" fill="white"/>
</g>
<mask id="mask2_93_1615" style="mask-type:luminance" maskUnits="userSpaceOnUse" x="-17" y="-87" width="288" height="288">
<path d="M271 -87H-17V201H271V-87Z" fill="white"/>
</mask>
<g mask="url(#mask2_93_1615)">
<path d="M167.101 46.857C168.66 47.493 170.266 47.817 171.872 47.817C175.073 47.817 178.072 46.55 180.317 44.251C182.651 41.861 183.263 38.657 183.132 35.228L183.105 34.509H171.374L169.375 38.936H177.063C177.063 38.936 176.649 39.625 176.509 39.853C175.436 41.59 173.467 42.219 171.841 42.219C170.393 42.219 168.992 41.738 167.902 40.865C166.378 39.644 165.56 37.628 165.719 35.472C165.875 33.34 166.962 31.485 168.624 30.509C169.608 29.932 170.7 29.628 171.785 29.628C173.092 29.628 174.31 30.049 175.305 30.807C175.958 31.305 176.516 31.948 176.936 32.711L182.293 30.398C180.306 26.496 176.256 24.071 171.723 24.071C168.069 24.071 164.679 25.664 162.424 28.442C160.019 31.402 159.192 35.222 160.154 38.92C161.1 42.548 163.632 45.441 167.101 46.857Z" fill="white"/>
</g>
<mask id="mask3_93_1615" style="mask-type:luminance" maskUnits="userSpaceOnUse" x="-17" y="-87" width="288" height="288">
<path d="M271 -87H-17V201H271V-87Z" fill="white"/>
</mask>
<g mask="url(#mask3_93_1615)">
<path d="M121.797 47.386L125.619 34.631L129.661 47.382H135.957L142.617 24.628H136.614L132.462 38.739L128.145 24.614L122.957 24.65L118.774 38.973L114.583 24.628H108.575L115.389 47.386H121.797Z" fill="white"/>
</g>
<mask id="mask4_93_1615" style="mask-type:luminance" maskUnits="userSpaceOnUse" x="-17" y="-87" width="288" height="288">
<path d="M271 -87H-17V201H271V-87Z" fill="white"/>
</mask>
<g mask="url(#mask4_93_1615)">
<path d="M204.673 47.386V24.633H198.816V33.17H190.414V24.633H184.559V47.386H190.414V38.849H198.816V47.386H204.673Z" fill="white"/>
</g>
<mask id="mask5_93_1615" style="mask-type:luminance" maskUnits="userSpaceOnUse" x="-17" y="-87" width="288" height="288">
<path d="M271 -87H-17V201H271V-87Z" fill="white"/>
</mask>
<g mask="url(#mask5_93_1615)">
<path d="M170.977 62.119C174.831 59.016 175.961 54.588 175.961 51.142H169.74C169.74 51.144 169.498 59.679 164.055 59.679H162.034V51.142H156.18V73.895H162.034V65.19H164.558C165.593 65.19 167.116 65.614 168.285 66.801C170.669 69.223 170.272 73.888 170.272 73.895H176.464C176.464 73.895 177.196 66.422 170.977 62.119Z" fill="white"/>
</g>
<mask id="mask6_93_1615" style="mask-type:luminance" maskUnits="userSpaceOnUse" x="-17" y="-87" width="288" height="288">
<path d="M271 -87H-17V201H271V-87Z" fill="white"/>
</mask>
<g mask="url(#mask6_93_1615)">
<path d="M204.672 51.143H198.817V73.896H204.672V51.143Z" fill="white"/>
</g>
<mask id="mask7_93_1615" style="mask-type:luminance" maskUnits="userSpaceOnUse" x="-17" y="-87" width="288" height="288">
<path d="M271 -87H-17V201H271V-87Z" fill="white"/>
</mask>
<g mask="url(#mask7_93_1615)">
<path d="M118.285 56.584H123.393C124.366 56.584 125.162 57.38 125.162 58.353C125.162 59.325 124.366 60.121 123.393 60.121H118.285V56.584ZM118.285 64.696H124.658C125.631 64.696 126.427 65.492 126.427 66.465C126.427 67.438 125.631 68.234 124.658 68.234H118.285V64.696ZM129.964 61.672C130.675 60.436 131.048 58.989 131.048 57.448C131.048 55.901 130.506 54.532 129.435 53.381C128.052 51.894 125.775 51.14 122.667 51.14L112.447 51.142V73.895H124.853C125.655 73.895 127.433 73.418 128.124 73.117C130.402 72.132 131.934 70.088 132.22 67.652C132.484 65.392 131.654 63.209 129.964 61.672Z" fill="white"/>
</g>
<mask id="mask8_93_1615" style="mask-type:luminance" maskUnits="userSpaceOnUse" x="-17" y="-87" width="288" height="288">
<path d="M271 -87H-17V201H271V-87Z" fill="white"/>
</mask>
<g mask="url(#mask8_93_1615)">
<path d="M194.236 64.588C196.231 62.964 197.352 60.54 197.201 58.064C197.041 55.44 195.516 53.247 193.016 52.046C191.27 51.207 189.343 51.142 188.795 51.142H177.87V73.895H183.725V66.53H187.254C187.894 66.53 188.819 66.698 189.602 67.493C190.658 68.569 191.167 70.465 191.121 73.146L191.124 73.895H197.324L197.313 73.136C197.275 70.53 196.689 67.034 194.236 64.588ZM190.448 60.714C190.443 60.717 189.961 61.02 189.276 61.02H183.726V56.655H189.276C189.835 56.655 190.434 56.899 190.67 57.127C191.072 57.515 191.314 58.114 191.331 58.77C191.354 59.6 191.016 60.345 190.448 60.714Z" fill="white"/>
</g>
<mask id="mask9_93_1615" style="mask-type:luminance" maskUnits="userSpaceOnUse" x="-17" y="-87" width="288" height="288">
<path d="M271 -87H-17V201H271V-87Z" fill="white"/>
</mask>
<g mask="url(#mask9_93_1615)">
<path d="M145.918 51.13H141.361C141.361 51.13 136.16 59.293 132.336 72.947L132.071 73.894H138.377L138.523 73.335C138.878 71.964 139.254 70.628 139.646 69.355H147.636C148.025 70.623 148.402 71.959 148.757 73.335L148.903 73.894H155.21L154.944 72.947C151.291 59.904 145.918 51.13 145.918 51.13ZM141.207 64.674C141.707 62.779 142.645 60.366 143.654 58.341C144.711 60.378 145.643 62.823 146.094 64.674H141.207Z" fill="white"/>
</g>
<mask id="mask10_93_1615" style="mask-type:luminance" maskUnits="userSpaceOnUse" x="-17" y="-87" width="288" height="288">
<path d="M271 -87H-17V201H271V-87Z" fill="white"/>
</mask>
<g mask="url(#mask10_93_1615)">
<path d="M115.585 88.91V79.784H112.474V77.666H121.012V79.784H117.867V88.91H115.585Z" fill="white"/>
</g>
<mask id="mask11_93_1615" style="mask-type:luminance" maskUnits="userSpaceOnUse" x="-17" y="-87" width="288" height="288">
<path d="M271 -87H-17V201H271V-87Z" fill="white"/>
</mask>
<g mask="url(#mask11_93_1615)">
<path d="M122.825 88.91V77.666H130.532V79.865H125.107V82.277H129.93V84.266H125.107V86.71H130.696V88.91H122.825Z" fill="white"/>
</g>
<mask id="mask12_93_1615" style="mask-type:luminance" maskUnits="userSpaceOnUse" x="-17" y="-87" width="288" height="288">
<path d="M271 -87H-17V201H271V-87Z" fill="white"/>
</mask>
<g mask="url(#mask12_93_1615)">
<path d="M143.266 88.91H140.771L139.762 86.466H135.069L134.058 88.91H131.597L136.372 77.665H138.475L143.266 88.91ZM137.415 80.811L135.867 84.543H138.963L137.415 80.811Z" fill="white"/>
</g>
<mask id="mask13_93_1615" style="mask-type:luminance" maskUnits="userSpaceOnUse" x="-17" y="-87" width="288" height="288">
<path d="M271 -87H-17V201H271V-87Z" fill="white"/>
</mask>
<g mask="url(#mask13_93_1615)">
<path d="M154.401 81.43C153.847 80.306 152.641 79.524 151.289 79.524C149.317 79.524 147.753 81.235 147.753 83.272C147.753 85.358 149.284 86.988 151.355 86.988C152.772 86.988 153.897 86.255 154.484 84.967H151.094V82.897H157.173C157.384 86.303 154.631 89.171 151.452 89.171C148.062 89.171 145.455 86.564 145.455 83.272C145.455 80.094 148.014 77.357 151.321 77.357C153.489 77.357 155.427 78.546 156.487 80.486L154.401 81.43Z" fill="white"/>
</g>
<mask id="mask14_93_1615" style="mask-type:luminance" maskUnits="userSpaceOnUse" x="-17" y="-87" width="288" height="288">
<path d="M271 -87H-17V201H271V-87Z" fill="white"/>
</mask>
<g mask="url(#mask14_93_1615)">
<path d="M161.382 88.91H159.101V77.649H164.641C166.792 77.649 168.537 79.034 168.537 81.153C168.537 82.571 167.755 83.713 166.712 84.331C168.031 85.391 168.569 87.068 168.569 88.959H166.108C166.108 86.678 165.326 85.064 163.387 85.064H161.382V88.91ZM161.382 79.816V82.929H164.625C165.603 82.929 166.238 82.212 166.238 81.38C166.238 80.647 165.569 79.816 164.625 79.816H161.382Z" fill="white"/>
</g>
<mask id="mask15_93_1615" style="mask-type:luminance" maskUnits="userSpaceOnUse" x="-17" y="-87" width="288" height="288">
<path d="M271 -87H-17V201H271V-87Z" fill="white"/>
</mask>
<g mask="url(#mask15_93_1615)">
<path d="M182.148 83.271C182.148 86.58 179.475 89.219 176.183 89.219C172.908 89.219 170.267 86.579 170.267 83.271C170.267 79.979 172.924 77.323 176.215 77.323C179.492 77.323 182.148 79.964 182.148 83.271ZM179.817 83.271C179.817 81.153 178.155 79.474 176.2 79.474C174.261 79.474 172.598 81.153 172.598 83.271C172.598 85.39 174.26 87.052 176.2 87.052C178.155 87.053 179.817 85.391 179.817 83.271Z" fill="white"/>
</g>
<mask id="mask16_93_1615" style="mask-type:luminance" maskUnits="userSpaceOnUse" x="-17" y="-87" width="288" height="288">
<path d="M271 -87H-17V201H271V-87Z" fill="white"/>
</mask>
<g mask="url(#mask16_93_1615)">
<path d="M193.121 77.666V84.787C193.121 87.313 190.97 89.139 188.444 89.139C185.918 89.139 183.767 87.314 183.767 84.787V77.666H186.048V84.787C186.048 85.928 187.058 86.971 188.444 86.971C189.829 86.971 190.84 85.928 190.84 84.787V77.666H193.121Z" fill="white"/>
</g>
<mask id="mask17_93_1615" style="mask-type:luminance" maskUnits="userSpaceOnUse" x="-17" y="-87" width="288" height="288">
<path d="M271 -87H-17V201H271V-87Z" fill="white"/>
</mask>
<g mask="url(#mask17_93_1615)">
<path d="M197.689 88.927H195.408V77.666H200.899C203.034 77.666 204.68 79.262 204.68 81.332C204.68 83.63 202.969 84.999 200.899 84.999H197.689V88.927ZM197.689 79.865V82.799H200.883C201.828 82.799 202.382 82.148 202.382 81.332C202.382 80.647 201.778 79.865 200.883 79.865H197.689Z" fill="white"/>
</g>
<mask id="mask18_93_1615" style="mask-type:luminance" maskUnits="userSpaceOnUse" x="-17" y="-87" width="288" height="288">
<path d="M271 -87H-17V201H271V-87Z" fill="white"/>
</mask>
<g mask="url(#mask18_93_1615)">
<path fill-rule="evenodd" clip-rule="evenodd" d="M101.791 56.864C101.791 75.65 86.562 90.881 67.775 90.881C48.989 90.881 33.76 75.651 33.76 56.864C33.76 38.078 48.989 22.848 67.775 22.848C86.562 22.849 101.791 38.079 101.791 56.864Z" fill="#E90000"/>
</g>
<mask id="mask19_93_1615" style="mask-type:luminance" maskUnits="userSpaceOnUse" x="-17" y="-87" width="288" height="288">
<path d="M271 -87H-17V201H271V-87Z" fill="white"/>
</mask>
<g mask="url(#mask19_93_1615)">
<path d="M67.7979 89.021C50.0429 89.021 35.6499 74.633 35.6499 56.886C35.6499 39.138 50.0429 24.753 67.7979 24.753C85.5529 24.753 99.9469 39.138 99.9469 56.886C99.9469 74.634 85.5529 89.021 67.7979 89.021Z" fill="white"/>
</g>
<mask id="mask20_93_1615" style="mask-type:luminance" maskUnits="userSpaceOnUse" x="-17" y="-87" width="288" height="288">
<path d="M271 -87H-17V201H271V-87Z" fill="white"/>
</mask>
<g mask="url(#mask20_93_1615)">
<path d="M67.1539 36.467C67.0279 36.579 67.0459 36.667 67.0359 36.759L67.0229 37.056C67.1349 36.972 67.3489 36.873 67.3489 36.873C67.3489 36.873 67.3809 36.9 67.3729 37.051C67.3649 37.201 67.424 37.244 67.424 37.25C67.51 36.993 67.6609 36.966 67.7739 36.937C67.6799 37.055 67.7689 37.242 67.9309 37.233C68.0959 37.227 68.155 37.056 68.063 36.924C68.263 36.921 68.5259 37.11 68.5259 37.11C68.4439 36.674 67.7659 36.668 67.4719 36.787C67.4719 36.787 67.8509 36.106 68.8179 36.562C68.4859 36.092 67.5549 36.111 67.1539 36.467Z" fill="#E90000"/>
</g>
<mask id="mask21_93_1615" style="mask-type:luminance" maskUnits="userSpaceOnUse" x="-17" y="-87" width="288" height="288">
<path d="M271 -87H-17V201H271V-87Z" fill="white"/>
</mask>
<g mask="url(#mask21_93_1615)">
<path d="M67.4911 56.043C67.2361 56.043 67.2361 56.512 67.4911 56.512C67.7461 56.512 67.7451 56.043 67.4911 56.043Z" fill="#E90000"/>
</g>
<mask id="mask22_93_1615" style="mask-type:luminance" maskUnits="userSpaceOnUse" x="-17" y="-87" width="288" height="288">
<path d="M271 -87H-17V201H271V-87Z" fill="white"/>
</mask>
<g mask="url(#mask22_93_1615)">
<path d="M66.4301 31.797C67.0931 31.644 68.2591 31.593 68.8711 31.752L69.1701 24.77C68.7121 24.751 68.2611 24.701 67.7981 24.701C67.2071 24.701 66.6311 24.758 66.0481 24.789L66.4301 31.797Z" fill="#E90000"/>
</g>
<mask id="mask23_93_1615" style="mask-type:luminance" maskUnits="userSpaceOnUse" x="-17" y="-87" width="288" height="288">
<path d="M271 -87H-17V201H271V-87Z" fill="white"/>
</mask>
<g mask="url(#mask23_93_1615)">
<path d="M66.796 38.436C66.633 38.638 66.468 38.459 66.35 38.34C66.212 38.2 65.954 38.522 66.052 38.58C66.133 38.627 66.207 38.398 66.407 38.69C66.45 38.833 66.767 38.832 66.806 38.708C66.847 38.579 67.094 38.515 67.139 38.547C67.335 38.683 67.194 38.046 66.796 38.436Z" fill="#E90000"/>
</g>
<mask id="mask24_93_1615" style="mask-type:luminance" maskUnits="userSpaceOnUse" x="-17" y="-87" width="288" height="288">
<path d="M271 -87H-17V201H271V-87Z" fill="white"/>
</mask>
<g mask="url(#mask24_93_1615)">
<path d="M69.5009 44.132C69.7729 44.146 70.1769 43.879 70.5219 43.6C70.5749 43.547 70.6359 43.446 70.4979 43.503C70.1739 43.677 69.8819 43.755 69.6679 43.782C69.1989 43.839 68.7609 43.775 68.8269 43.285L68.8809 42.894C68.9359 42.679 68.9779 42.39 68.8479 42.535L67.7319 44.33C67.8509 44.334 67.9259 44.258 68.0399 44.149C68.1559 44.04 68.9449 44.111 69.5009 44.132Z" fill="#E90000"/>
</g>
<mask id="mask25_93_1615" style="mask-type:luminance" maskUnits="userSpaceOnUse" x="-17" y="-87" width="288" height="288">
<path d="M271 -87H-17V201H271V-87Z" fill="white"/>
</mask>
<g mask="url(#mask25_93_1615)">
<path d="M73.997 58.661C73.997 58.661 74.225 59.093 74.183 59.115C74.191 59.171 74.134 59.326 73.83 59.115C73.605 58.931 73.457 59.011 73.331 59.035C73.206 59.056 72.777 59.171 72.777 59.171C72.777 59.171 72.566 59.242 72.71 59.374C73.016 59.584 72.616 60.085 72.812 60.071L73.048 60.083C73.048 60.083 73.006 59.95 73.141 59.95C73.277 59.95 73.863 59.95 74.013 59.421L74.005 59.415C74.061 59.437 74.121 59.448 74.183 59.431C74.383 59.406 74.653 59.148 73.997 58.661ZM73.276 59.754C72.937 59.731 72.903 59.491 72.914 59.336L73.044 59.311C73.105 59.667 73.433 59.54 73.433 59.54C73.298 59.491 73.3 59.332 73.32 59.25C73.599 59.187 73.625 59.203 73.797 59.293C73.768 59.411 73.65 59.766 73.276 59.754Z" fill="#E90000"/>
</g>
<mask id="mask26_93_1615" style="mask-type:luminance" maskUnits="userSpaceOnUse" x="-17" y="-87" width="288" height="288">
<path d="M271 -87H-17V201H271V-87Z" fill="white"/>
</mask>
<g mask="url(#mask26_93_1615)">
<path d="M85.6039 59.051C87.4829 60.587 87.0319 61.817 86.1199 63.316C86.9829 62.896 87.4349 62.166 87.5469 60.773C88.1009 61.125 89.0819 61.639 89.9429 62.051C90.5639 62.305 90.9039 62.467 91.4339 63.127C91.6629 63.877 88.4969 65.18 88.4969 65.18C88.4969 65.18 90.7989 64.928 91.9929 63.851C92.7049 64.87 93.2739 66.211 93.5889 67.724C93.7389 68.026 92.5639 68.763 92.2589 68.166C92.5269 66.93 91.9909 66.136 91.9909 66.136C92.3089 67.504 92.0309 68.711 91.0869 69.826C90.8079 70.122 90.5909 70.408 90.4259 70.686C90.3609 70.687 90.2509 70.688 90.1309 70.678L90.1329 70.687C90.0039 70.675 89.8649 70.651 89.7589 70.601C89.4859 70.482 89.1539 70.97 88.6949 70.85C88.6949 70.85 89.1219 71.15 89.5769 70.997C89.9069 70.887 90.0469 71.018 90.1449 71.108L90.1429 71.118L90.1839 71.149C90.1229 71.304 90.1099 71.331 90.0909 71.493C89.8759 72.185 89.9719 72.729 90.1229 73.029C90.3799 73.546 90.2889 73.774 90.2299 73.911C90.1689 74.048 88.8169 76.213 88.8169 76.213C88.5299 76.729 88.5069 76.721 88.5219 77.007C88.5379 77.297 88.4229 77.441 88.4229 77.441C88.2649 77.534 87.5849 77.973 87.4849 77.685C87.6039 78.641 86.7129 78.727 86.7129 78.727L85.3769 78.944C85.2909 78.762 85.4059 78.597 85.5599 78.457L84.8149 78.823C84.5829 78.336 85.4809 77.985 85.4809 77.985L84.9959 77.948C84.7249 77.933 84.2379 78.489 84.2379 78.489C84.0119 78.127 84.2239 78.021 84.2239 78.021C84.2239 78.021 84.4789 77.913 84.4929 77.777C84.5109 77.004 84.8589 77.08 85.1329 77.294C85.4039 77.504 85.5649 77.475 85.5649 77.475C86.8739 76.553 87.0099 76.16 87.4959 75.246C87.7099 75.084 88.4439 75.185 88.9119 75.426C89.1489 75.4 88.3519 74.592 87.7669 74.589C88.1379 73.422 87.7749 72.558 86.7179 71.485C85.8289 70.579 85.7039 69.765 85.9159 68.926C86.2309 68.565 86.9569 68.132 87.1489 68.33C87.4779 68.63 87.9379 68.602 88.1509 68.33C88.6179 67.71 89.0609 67.631 89.0609 67.631C88.4869 67.54 88.3019 67.902 88.1209 67.997C87.9519 68.08 87.7599 68.19 87.4679 67.97C87.4429 67.949 87.1549 67.682 86.8789 67.782C86.5979 67.887 86.2099 68.108 86.2099 68.108C86.4059 67.662 86.6559 67.199 86.9009 66.711C87.7649 64.956 87.1059 64.091 87.1059 64.091C87.4909 65.321 85.7949 67.275 85.7949 67.275C85.3139 66.904 85.3139 66.948 85.0199 66.588C85.7739 66.283 85.8319 65.792 85.9689 65.278C86.0099 65.173 86.0179 65.059 86.0059 64.944C85.1519 66.22 83.2329 67.146 81.1859 66.049C81.0189 65.96 80.9769 65.784 81.0849 65.649C82.1779 64.899 83.1299 64.219 83.6409 63.692C84.3939 62.944 84.3819 62.466 84.9609 61.93C85.6939 61.349 84.6009 60.576 84.4669 60.447C82.9869 59.008 82.2569 58.003 81.9239 57.472C81.8409 57.34 81.7399 57.177 81.6799 57.033C81.7349 57.564 82.1559 58.292 82.6449 58.984C82.6529 59.191 82.5939 59.472 82.2669 59.61C81.8759 59.83 80.7819 60.129 80.7269 60.722C81.1209 59.918 82.9269 60.244 83.1489 59.664C83.6789 60.339 84.1679 60.882 84.2639 61.006C84.4509 61.221 84.2409 61.427 84.0729 61.717C83.8739 61.904 83.0649 63.251 82.4599 63.847L82.2519 64.035C81.9359 63.633 81.0299 63.456 80.7649 63.46C80.4679 63.463 80.3299 63.345 80.3299 63.345C80.3299 63.345 80.4249 63.472 80.5979 63.621L80.5959 63.623C80.6929 63.712 80.8199 63.811 80.9709 63.897L80.9869 63.889C81.3259 64.07 81.5269 64.058 81.7709 64.438C80.7839 65.248 79.2309 66.428 79.0039 66.62C78.7049 66.866 78.2819 67.185 78.6779 68.086C79.0759 68.992 78.5989 68.995 78.4989 69.04C78.4009 69.09 77.6719 69.069 78.3139 69.411C78.9499 69.748 77.5279 70.551 77.5129 70.559C77.5249 70.558 77.5379 70.561 77.5509 70.56H77.5099C77.5099 70.56 77.5119 70.559 77.5129 70.559C77.3189 70.579 77.1219 70.583 76.9299 70.545C76.9359 70.294 76.9729 69.827 77.1479 69.818C77.3909 69.81 77.6449 69.547 77.6009 69.246C77.3899 69.314 77.1259 69.488 76.8919 69.466C76.6789 69.437 76.5609 70.047 76.6169 70.442C76.4939 70.391 76.4459 70.389 76.3139 70.389L76.3559 70.369C76.1339 70.388 76.4229 69.39 76.6559 69.29C76.4699 69.301 75.8719 69.371 75.8939 69.634C75.8939 69.634 75.8579 69.888 75.9039 70.097C75.9039 70.097 75.8059 70.136 75.7079 70.197C75.5919 70.119 75.4279 70.024 75.3559 69.894C75.4249 69.709 75.4719 69.545 75.4969 69.398C75.5549 69.335 75.6249 69.285 75.6959 69.237L75.6889 69.225C75.7789 69.194 76.2449 69.043 76.2839 69.069C76.2839 69.069 76.6669 68.593 76.6979 68.256C76.8319 67.838 76.4629 66.955 76.7739 66.428C76.8209 66.351 76.8919 66.245 76.9759 66.123C77.0829 66.244 77.5929 66.478 77.9769 66.357C78.3599 66.229 78.5569 66.377 78.5569 66.377C78.3339 66.064 78.3379 65.79 77.6129 65.747C77.5829 65.747 77.3989 65.747 77.3489 65.688C77.9369 64.878 78.4659 63.985 79.0039 63.139C79.9059 61.752 79.0849 62.517 78.3229 61.226L78.3339 61.232C78.0829 60.851 77.8859 60.237 77.8359 59.779C77.6739 60.178 77.4019 60.201 77.0609 60.357C77.0699 59.787 76.2909 59.053 75.8959 58.669C77.3409 61.137 75.6839 61.574 75.2329 61.814C74.7769 62.055 74.9919 62.298 75.1269 62.736C75.2119 63.005 75.0119 63.197 74.8829 63.252C74.6979 63.33 74.4529 63.365 74.0079 63.25C73.8779 63.217 73.9079 63.147 73.9529 63.05C74.2829 62.446 74.4439 61.991 74.4049 61.288C73.5169 61.272 73.1409 61.453 73.1409 61.453C73.2339 61.443 73.3309 61.443 73.4249 61.443C73.3509 61.891 73.2149 62.165 72.7949 62.447C72.3279 62.792 72.0729 62.235 72.2669 61.949C72.4619 61.663 72.1929 61.261 72.1929 61.261L72.1459 61.347C72.2849 61.951 71.8089 62.167 71.4729 62.253C71.2329 62.315 71.1369 62.327 71.1369 61.933C71.1389 61.067 71.4229 60.441 71.5299 60.175C71.6489 59.877 71.7709 59.647 71.6209 59.394C71.4229 59.06 71.6369 58.759 71.7709 58.449C71.8219 58.345 72.5999 58.139 73.0179 58.15C73.0529 58.08 72.1629 58.015 71.9089 58.121C71.9709 57.975 72.0329 57.824 72.0949 57.688C72.2079 57.613 72.9799 57.504 73.3019 57.546C73.0889 57.385 72.6569 57.328 72.2199 57.39L72.2809 57.224C72.4619 56.749 74.1109 56.109 74.3609 56.013L74.2249 57.224C74.2249 57.224 74.7669 55.701 75.5339 55.102C75.5339 55.102 75.7459 56.502 75.6839 56.891C75.6229 57.282 75.0349 57.912 75.0349 57.912L75.6399 58.385C75.6399 58.385 76.2289 57.752 76.1089 57.014C76.0469 56.66 75.9439 56.149 75.8549 55.715C75.9849 55.689 76.2209 55.635 76.4929 55.566C76.7519 55.545 77.0409 55.48 77.3509 55.382C77.7129 55.566 78.2439 56.922 78.2439 56.922C78.4119 56.003 77.9909 55.412 77.8299 55.223C78.2589 55.072 78.7159 54.888 79.1689 54.717C79.5929 55.045 80.2299 56.651 80.2299 56.651C80.2299 56.651 80.4259 56.859 80.3389 55.988C80.2659 55.32 79.9159 54.742 79.7559 54.506C81.1919 54.026 82.5379 53.868 83.0119 55.432C83.8409 58.466 85.5939 59.039 85.5939 59.039C85.3659 58.84 84.6109 57.808 84.4539 57.61L99.9299 58.274C99.9499 57.81 99.9999 57.354 99.9999 56.886C99.9999 56.298 99.9429 55.726 99.9119 55.147L90.3899 55.665L90.7629 55.312C91.1509 55.502 91.3849 55.111 91.4469 54.781L91.6789 53.927C91.8009 53.842 91.9109 53.766 91.9999 53.692L99.6929 52.671C99.5559 51.628 99.3729 50.602 99.1389 49.594L91.3929 51.396C91.3579 51.32 90.9759 51.176 90.8399 51.21C90.7079 51.246 90.5479 51.053 90.4369 50.97C89.8889 50.543 88.6939 50.501 87.9869 50.513L98.5039 47.182C98.1879 46.182 97.8259 45.203 97.4169 44.248L85.5089 49.333C85.0909 48.972 84.6539 48.604 84.2649 48.307L96.3369 42.006C95.8519 41.078 95.3239 40.178 94.7539 39.306L82.6079 47.231C82.0829 46.956 81.5449 46.792 80.8009 46.903L93.3029 37.288C92.6649 36.46 91.9909 35.666 91.2769 34.905L79.5919 45.87L78.5849 45.23L89.5059 33.164C88.7369 32.46 87.9349 31.795 87.0989 31.167L77.3819 44.115C77.2669 43.655 77.0699 43.181 76.7229 42.863L85.0589 29.747C84.1809 29.188 83.2759 28.672 82.3429 28.199L75.2979 42.09C74.7139 41.882 74.5359 41.913 73.9749 41.956L80.0909 27.142C79.1309 26.745 78.1479 26.393 77.1439 26.089L72.3079 42.018C71.9949 41.964 71.6209 41.951 71.1349 41.81C71.1289 41.8 74.3169 27.357 74.7339 25.47C73.7229 25.247 72.6939 25.077 71.6499 24.952L70.7799 32.426C71.7219 33.16 71.6769 33.771 71.6039 34.474L71.3919 36.312C71.9419 36.879 71.7879 38.28 70.6509 39.159C70.7409 39.039 70.8059 38.906 70.8059 38.906C70.8059 38.906 71.0219 38.696 71.3299 37.913C71.6769 37.017 70.9559 36.496 70.9559 36.496L71.2719 34.747C71.3109 34.37 71.3379 33.766 71.1169 33.333C70.8649 32.839 70.3299 32.675 69.9929 32.9C69.9869 32.515 69.5539 32.231 69.1209 32.161C67.4369 31.889 65.0079 31.988 64.2189 33.786C64.0889 34.079 64.0369 34.498 64.1719 34.817C64.4679 35.527 64.4479 36.126 64.5429 36.886C64.3099 35.927 64.2589 35.681 63.9179 34.832C63.6709 34.254 64.0049 33.192 64.5809 32.702L63.5739 25.009C62.5319 25.146 61.5069 25.329 60.4979 25.563L64.3119 41.934C63.8489 42.019 63.5959 42.026 63.2439 42.413L63.2259 42.415L58.0919 26.196C57.0929 26.511 56.1139 26.873 55.1599 27.28L61.6699 42.533L61.5699 42.544C61.5699 42.544 61.1959 42.488 60.4879 42.863L52.9169 28.36C51.9909 28.844 51.0909 29.37 50.2199 29.939L59.2859 43.838C59.0239 44.268 58.9229 44.814 58.8869 45.279L48.2009 31.389C47.3729 32.025 46.5789 32.699 45.8179 33.411L57.6919 46.142L56.8329 46.723L44.0729 35.179C43.3689 35.947 42.7039 36.747 42.0769 37.581L55.5309 47.7C55.0559 47.881 54.7199 48.05 54.3079 48.338L40.6539 39.62C40.0939 40.497 39.5769 41.403 39.1029 42.335L47.9409 46.812C47.4919 46.72 45.7359 46.638 44.8819 47.405L38.0459 44.582C37.6479 45.542 37.2949 46.525 36.9899 47.529L43.6639 49.537C43.1419 49.666 42.7079 50.091 42.6369 50.491C42.5279 51.099 43.2209 51.529 43.6889 51.764C43.5449 51.737 42.9779 51.713 41.9999 51.179L36.3699 49.938C36.1479 50.947 35.9769 51.975 35.8519 53.018L45.2809 54.159C45.4169 54.245 45.6119 54.374 45.7649 54.425L46.4039 54.638C46.5829 54.753 46.9739 54.992 47.2049 55.06C47.4429 55.13 47.4819 55.3 47.5819 55.413C47.6609 55.516 48.0659 55.792 48.4089 55.587C48.6239 55.486 48.7199 55.651 48.8089 55.709C48.8089 55.709 49.1759 55.925 49.5839 55.594C49.7939 55.423 49.8729 55.647 50.0079 55.765C50.0079 55.765 50.2499 56.049 50.7349 55.673C50.8159 55.611 51.1279 55.237 51.2009 55.16L51.4479 54.901L53.1839 55.11C52.8459 55.359 52.6019 55.855 52.3529 56.207L35.6669 55.498C35.6479 55.962 35.5969 56.418 35.5969 56.888C35.5969 57.472 35.6539 58.043 35.6849 58.619L51.0569 57.783C50.5569 58.334 50.0349 58.844 49.5589 59.283L35.9029 61.095C36.0399 62.139 36.2229 63.164 36.4569 64.174L42.6319 62.744C41.9929 63.002 41.6319 64.4 41.8319 65.062L37.0889 66.577C37.4039 67.576 37.7649 68.555 38.1729 69.509L44.5959 66.772C44.8159 67.408 45.1129 68.053 45.0219 68.74L40.2089 71.22L43.9079 71.215L43.8969 73.334C43.9109 73.849 43.7819 74.222 43.5719 74.552C43.4379 74.759 43.4869 75.068 43.5629 75.329C43.6659 75.68 43.6169 75.6 43.9889 75.571C43.9889 75.571 43.9719 76.089 43.9569 76.211C43.9429 76.334 43.7889 76.895 44.1199 77.133C44.6639 77.554 45.7789 77.41 45.8729 77.399C45.8729 77.399 45.9089 76.81 45.8939 76.527C45.8749 76.115 45.7149 76.148 45.4619 75.9C45.3429 75.781 45.0859 75.502 45.2679 75.203C45.4489 74.903 45.4179 74.491 45.4319 72.912C45.4359 72.473 45.5469 72.081 45.7029 71.75C45.7199 72.169 45.7299 72.957 45.5979 73.252C45.4279 73.638 45.5509 73.728 45.8099 73.925C45.8099 73.925 45.8989 74.134 45.8539 74.299C45.8099 74.465 45.6889 74.598 45.7809 75.443C45.8719 76.286 47.6929 76.163 47.6929 76.163C47.7529 75.77 47.6409 74.916 47.4019 74.768C47.1849 74.624 47.0349 74.221 47.1259 73.997C47.2279 73.629 47.0739 73.299 47.0119 73.084C46.8629 72.571 47.3059 70.775 47.4369 70.146L49.2409 68.967C49.4859 69.292 49.7779 68.907 49.8409 68.576L54.2709 65.687C54.3629 66.175 54.4519 66.528 54.4189 67.02L54.4319 67.01L54.4189 67.028C54.4189 67.025 54.4179 67.023 54.4189 67.02L48.8219 71.205L53.0099 71.226L52.3629 72.119C52.0189 72.595 51.6069 73.138 51.6899 73.693C51.9209 75.24 53.8849 75.453 54.8519 75.522L54.8639 77.97H54.8609C54.8609 78.284 54.8809 78.512 55.1229 78.753C55.4619 79.092 55.9189 79.016 56.3569 79.016C56.8539 79.016 57.1869 78.604 57.1869 78.124L57.1749 75.566H78.4189V78.34C78.4459 78.535 78.5379 78.713 78.6729 78.848C79.0119 79.187 79.4699 79.111 79.9069 79.111C80.4049 79.111 80.7359 78.699 80.7359 78.22C80.7359 77.323 80.7259 76.388 80.7239 75.471C81.7999 75.349 83.7059 74.991 83.8999 73.692C83.9809 73.156 83.6009 72.633 83.2659 72.171L82.5499 71.182H85.4269L85.5479 71.215C85.9359 71.993 86.4779 72.74 86.5249 72.792C86.9669 73.275 86.6479 73.672 86.6479 73.672C86.6479 73.672 85.9489 74.791 85.6019 75.398C85.2979 75.89 85.0989 75.859 84.8209 75.73C84.6059 75.431 84.1779 75.596 84.1779 75.596C84.1779 75.596 83.6469 75.613 83.2989 75.596C82.9469 75.58 82.9169 75.928 82.9169 75.928C82.5829 76.036 82.6589 76.277 82.6589 76.277C82.4859 76.467 82.5049 76.641 82.5659 76.768C82.6019 77.1 82.7899 77.251 83.1149 77.206C83.1259 77.343 83.1869 77.5 83.4069 77.564C83.6489 77.635 84.0459 77.713 84.2989 77.662C84.2629 77.684 84.2189 77.708 84.1629 77.733C83.5779 77.989 83.8739 78.618 84.2219 78.87L84.5719 78.601C84.4419 78.98 85.0189 79.226 85.4209 79.205C85.4209 79.205 86.1789 79.115 86.6949 79.022C87.2089 78.932 87.5409 78.676 87.5879 78.462C87.6349 78.249 87.7569 78.173 87.9369 78.11C88.1199 78.052 88.9289 77.885 88.8199 77.464C88.7139 77.037 88.8159 76.732 88.8159 76.732C89.8769 75.308 91.1819 73.833 90.8029 73.125C90.6639 72.83 90.2289 72.353 90.6489 71.327L90.6609 71.312H91.9899C92.0469 72.463 91.9629 73.342 91.7019 74.24C91.4609 75.057 90.1249 78.323 87.3209 79.229C83.9079 80.162 82.3009 77.948 82.2339 77.868C81.6739 77.195 81.1169 77.88 81.4789 78.316C81.4789 78.316 82.6239 80.186 85.2299 80.409C90.8949 80.901 93.7619 76.222 94.1549 71.18L96.0529 71.171L94.1909 70.288C94.1979 69.481 94.1289 68.619 93.9629 67.72L97.5479 69.199C97.9459 68.239 98.2989 67.258 98.6039 66.254L92.9659 64.545C92.7069 63.967 92.4019 63.383 92.0409 62.794C91.8739 62.53 91.6689 62.313 91.4329 62.125L99.2249 63.842C99.4479 62.83 99.6189 61.802 99.7449 60.757L85.6039 59.051ZM76.3869 67.475C76.5289 68.196 76.0529 68.751 75.9729 68.839C75.8269 68.74 75.6199 68.816 75.5089 68.932C75.3449 67.966 73.8579 68.273 73.3939 68.392C73.4039 68.328 73.4239 68.258 73.4459 68.198C73.6319 67.975 73.8009 67.646 73.8009 67.646L74.2809 66.446H76.4189C76.3429 66.652 76.2909 66.961 76.3869 67.475ZM66.1359 69.685C65.9329 68.872 65.9219 68.563 65.3899 67.834C65.2789 67.852 65.0449 67.814 64.9599 67.794C65.7629 68.381 65.8189 69.468 65.9249 70.369C65.9259 70.378 65.9279 70.381 65.9289 70.388C65.7639 70.387 65.5969 70.388 65.4419 70.374C65.2699 70.36 65.1169 70.332 64.9639 70.307C64.9689 70.281 64.9909 70.257 64.9939 70.231C65.0539 69.772 64.5679 69.434 64.0539 69.658C64.0409 69.664 64.0719 69.475 63.9979 69.245C63.7759 68.549 62.7559 68.287 61.9999 68.226C61.9449 68.093 61.7219 67.401 61.6819 67.241C61.5579 66.74 61.2319 65.768 61.0629 65.246C65.6209 66.922 71.9469 66.358 74.7239 64.718C74.5319 65.158 74.0749 66.216 73.7289 67.083C73.6149 67.364 73.4529 67.677 73.2899 67.804C72.9439 67.466 72.0939 67.184 70.9909 67.13C71.0689 66.865 71.3489 66.884 71.3489 66.689C71.3489 66.202 69.3519 66.204 69.3519 66.689C69.3519 66.787 69.4539 66.878 69.6209 66.945C69.6769 67.007 69.7119 67.074 69.7309 67.149C68.2439 67.23 67.1159 67.637 67.1159 68.125C67.1159 68.166 67.1229 68.207 67.1389 68.247C67.1649 68.388 67.2069 68.694 67.1229 68.949C67.1229 68.949 66.4999 67.849 65.9589 67.543L65.9639 67.552C65.7679 67.406 64.7079 67.422 64.7079 67.594C64.7079 67.774 65.7159 67.813 65.8699 67.654C66.2399 67.982 66.7319 68.726 66.9239 69.36C67.0349 69.729 67.1519 69.943 67.3119 69.529C67.4499 69.172 67.6049 68.72 67.6029 68.62C68.5689 69.464 71.2439 69.412 72.5949 68.787C72.9139 69.593 73.4969 70.225 73.5219 71.26C73.5309 71.529 73.4289 72.408 72.7019 73.002C71.6699 73.847 69.1829 73.75 68.0369 73.116C66.8579 72.509 67.0889 71.197 67.0889 71.197C66.5279 71.194 66.3059 70.364 66.1359 69.685ZM59.7509 69.851C59.7539 69.854 59.7549 69.856 59.7579 69.859C59.7539 69.839 59.7509 69.957 59.7509 69.851C59.3939 69.59 59.4149 69.29 59.7609 69.028C60.5669 68.42 62.6869 68.401 63.4219 69.081C63.6499 69.291 63.7109 69.52 63.4779 69.758C63.3669 69.333 62.6329 69.02 61.6149 69.02C60.5969 69.02 59.7499 69.552 59.7499 69.789C59.7499 69.822 59.7509 69.832 59.7509 69.851ZM63.6339 69.821C63.5579 70.424 63.4329 71.121 63.0609 71.613C62.6389 72.173 62.0349 72.384 61.4119 72.342C60.9559 72.31 60.5079 72.17 60.2549 71.924C59.7249 71.408 59.5199 70.576 59.4909 69.885C60.3159 70.598 62.8449 70.593 63.6339 69.821ZM59.9909 72.01C61.0019 72.844 62.5049 72.659 63.3719 71.706C63.6139 71.653 63.9009 71.501 64.1709 71.312C64.6589 71.496 64.9279 71.74 64.9299 71.991C64.9399 73.457 58.1219 73.46 58.1119 71.991C58.1089 71.672 58.6139 71.361 59.3839 71.17C59.5239 71.478 59.7629 71.821 59.9909 72.01ZM63.9899 71.016C63.9869 71.015 63.9849 71.014 63.9819 71.013C63.9769 71.02 63.9759 71.025 63.9709 71.032C63.8539 71.119 63.7459 71.188 63.6769 71.222C63.8349 70.849 63.9569 70.452 64.0409 70.057C64.2849 69.905 64.4849 69.959 64.5469 70.094C64.6859 70.395 64.3089 70.775 63.9899 71.016ZM70.4049 67.963C70.6699 67.95 70.8559 67.905 70.9269 67.609C71.7909 67.675 72.3839 67.895 72.3839 68.153C72.3839 68.798 68.5959 68.919 68.5959 68.166C68.5959 67.911 69.1919 67.738 69.8129 67.68L69.8469 67.751C69.9299 67.907 70.1869 67.972 70.4049 67.963ZM70.1989 67.025C70.5129 67.053 70.5659 67.047 70.8599 67.008C70.6579 67.165 70.6619 67.435 70.6609 67.67C70.6599 67.909 70.3999 67.951 70.3899 67.645L70.3829 67.422C70.3719 67.199 70.2709 67.08 70.1989 67.025ZM69.6119 66.654C69.6229 66.367 71.1309 66.385 71.1309 66.654C71.1309 67.02 69.6119 67.021 69.6119 66.654ZM69.7679 67.502C68.7279 67.578 67.9599 67.784 67.9599 68.1C67.9599 68.48 69.0539 68.787 70.4049 68.787C71.7569 68.787 72.8509 68.48 72.8509 68.1C72.8509 67.773 72.0399 67.564 70.9479 67.494C70.9619 67.404 70.9629 67.316 70.9739 67.229C72.2129 67.32 73.1399 67.672 73.1399 68.093C73.1399 68.586 71.8879 68.983 70.3449 68.983C68.8019 68.983 67.5529 68.587 67.5529 68.093C67.5529 67.46 69.3239 67.247 69.7429 67.219C69.7579 67.31 69.7579 67.408 69.7679 67.502ZM73.3799 68.983C73.6309 68.675 75.4829 68.418 74.7989 69.913C74.5319 70.452 74.4249 70.985 74.2589 71.23C74.1669 71.362 74.0329 71.482 73.8649 71.491C73.9089 70.93 73.7719 70.277 73.5509 69.758C73.3989 69.398 73.3799 69.147 73.3799 68.983ZM77.1259 65.482C76.9309 65.701 76.6689 65.979 76.5179 66.23L75.0079 64.62L75.0559 64.506C75.2439 64.37 75.4249 64.22 75.5819 64.05L77.1339 65.467L77.1259 65.482ZM76.8289 60.985C77.7519 60.794 77.5599 60.865 78.1849 61.821C78.2709 62.001 78.4039 62.152 78.4699 62.318L76.5509 61.346C76.6619 61.234 76.7559 61.112 76.8289 60.985ZM75.6549 61.915L78.2629 63.573C78.1309 63.855 77.9629 64.142 77.7919 64.413L76.0549 63.104C76.0999 62.578 75.7959 62.303 75.4209 61.986C75.5019 61.966 75.5749 61.942 75.6549 61.915ZM73.0839 62.398C73.1489 62.474 73.4009 62.701 73.6339 62.729C73.6339 62.729 73.2349 62.997 72.7189 62.677C72.7189 62.678 72.9949 62.488 73.0839 62.398ZM71.2099 60.096C70.5889 59.947 69.6129 59.837 68.9459 59.811C69.3369 59.342 70.6189 58.534 71.0799 59.003L71.1009 59.035C71.1939 59.14 71.2459 59.731 71.2099 60.096ZM67.2639 58.334C65.4219 58.288 64.0079 57.619 63.3809 57.287L63.4069 56.82C64.4699 57.495 66.0409 57.939 67.5219 57.939C69.0009 57.939 70.5809 57.461 71.6439 56.791L71.6609 57.296C71.2369 57.58 69.8389 58.281 67.2639 58.334ZM66.2329 59.927C65.1509 59.981 63.8769 60.261 62.9699 60.582C62.9869 60.398 63.1009 59.548 63.1199 59.186C63.7879 58.033 65.9179 59.557 66.2329 59.927ZM71.8689 55.158L71.8979 54.763L78.9249 51.096L78.9919 51.12C79.0489 51.444 79.2359 51.704 79.4739 51.91L71.8689 55.158ZM71.9379 54.189L71.9759 53.69L76.4459 50.254L77.4519 50.595L71.9379 54.189ZM72.3489 56.758C72.3379 56.589 72.3189 56.26 72.2969 56.066C72.2529 55.674 72.2649 55.465 72.5569 55.284L73.1879 56.335C72.9139 56.452 72.5839 56.577 72.3489 56.758ZM81.7209 53.65C81.1089 53.59 80.4129 53.812 79.8119 54.091L75.7129 55.049L75.6699 54.861L74.4349 55.326L74.4319 55.349L73.2409 55.628L72.8139 55.32L81.3369 52.618C81.9369 52.724 83.0419 52.928 84.0279 53.112L81.7209 53.65ZM83.5329 56.041C83.4069 55.629 83.3189 55.233 83.1679 54.866L87.2169 54.346C87.6799 54.82 88.0799 55.274 88.5369 55.752L83.5329 56.041ZM52.9469 49.324L51.4779 50.734C51.6299 50.562 51.7599 50.326 51.7589 50.077C51.7569 49.449 50.6999 49.159 50.3649 49.085C50.5049 48.883 50.5159 48.68 50.4689 48.491C50.4489 48.338 50.3949 48.321 50.3569 48.218C50.3559 48.218 50.2749 48.142 50.2499 48.124C50.1289 48.025 49.7139 47.974 49.5899 48.035C49.5799 47.866 49.5459 47.717 49.4609 47.583L52.9469 49.324ZM49.5299 48.603C49.6289 48.541 49.8549 48.445 49.9589 48.553C50.0479 48.553 50.0669 48.868 50.0329 48.931C49.9029 49.347 49.5019 49.549 49.1659 49.769C49.3239 49.395 49.4459 48.999 49.5299 48.603ZM47.0469 47.149C48.1889 47.149 49.1149 47.703 49.1149 47.99C49.1149 48.277 49.0619 48.206 48.9669 48.302C48.8559 47.878 48.1219 47.564 47.1039 47.564C46.0859 47.564 45.2389 48.096 45.2389 48.332C45.2389 48.369 45.2399 48.38 45.2399 48.399C45.2419 48.401 45.2439 48.401 45.2469 48.403C45.2429 48.383 45.2399 48.501 45.2399 48.399C45.0739 48.283 44.9799 48.292 44.9799 47.99C44.9799 47.684 45.9049 47.149 47.0469 47.149ZM49.1239 48.368C49.0479 48.969 48.9189 49.671 48.5519 50.159C48.1329 50.716 47.5239 50.929 46.9019 50.887C46.4489 50.857 45.9959 50.714 45.7449 50.47C45.2169 49.957 45.0099 49.122 44.9809 48.431C45.8049 49.144 48.3339 49.139 49.1239 48.368ZM43.1149 50.509C43.0939 49.919 44.3089 49.622 44.7759 49.526C44.8729 49.865 45.2099 50.332 45.4799 50.555C46.4869 51.385 47.9939 51.205 48.8609 50.252L48.9519 50.223V50.221C49.4379 50.023 49.8939 49.747 50.2299 49.34C50.3689 49.356 50.6219 49.418 50.8449 49.517C51.4229 49.774 51.4339 50.297 51.0199 50.715C50.2129 51.532 47.9139 51.749 47.1709 51.772C45.2179 51.833 43.2499 51.381 43.1149 50.509ZM45.2339 53.749L43.8989 51.851C43.8989 51.851 44.5359 51.198 45.2339 52.431C45.2339 52.431 45.4709 52.607 45.7609 52.976L46.1509 54.23C45.8619 54.082 45.4539 53.97 45.2339 53.749ZM51.3539 52.257C51.4859 52.48 52.4429 52.83 51.9339 53.856C51.6349 54.459 51.2429 54.849 50.7699 55.329C50.5799 55.631 50.1469 55.65 49.9929 55.459C49.9029 55.333 49.6989 55.27 49.5619 55.341C49.1659 55.605 49.0389 55.459 48.8219 55.341C48.5669 55.157 48.3649 55.252 48.3649 55.252C48.0319 55.491 47.7409 55.26 47.6839 55.196C47.6419 55.168 47.5119 54.888 47.2249 54.819C46.8049 54.717 46.5899 54.5 46.5679 54.465C46.5429 54.431 46.3059 53.97 46.3059 53.97C46.1319 53.468 45.9689 52.987 45.8369 52.473C45.7629 51.894 46.5439 51.739 46.8519 52.613C46.8839 52.716 47.2389 53.639 47.2389 53.639C47.2389 53.639 47.8809 53.902 48.0449 54.248C48.0949 54.551 48.1989 54.911 48.5499 54.982C48.2839 54.622 48.2489 54.229 48.1379 53.816C48.1379 53.816 48.0229 52.533 48.0029 52.432C47.9249 52.065 48.3149 51.946 48.6079 51.996C48.8459 52.057 48.8839 52.303 48.9009 52.338C48.9239 52.388 49.1469 53.279 49.1709 53.637C49.1919 53.801 49.3579 54.317 49.4389 54.644C49.4929 54.86 49.8429 55.044 49.7479 54.548C49.6269 53.915 49.7669 53.512 49.7669 53.512L50.0759 52.059C50.0759 52.059 50.1649 51.607 50.6009 51.651C50.8869 51.724 50.7949 52.028 50.7809 52.259C50.7589 52.741 50.4669 53.822 50.6889 54.225C50.6889 54.225 51.0099 53.901 51.0899 54.005C50.9369 53.752 50.8849 53.775 50.9329 53.458C50.9919 53.075 51.0279 52.413 51.0509 52.284C51.0809 52.123 51.0939 51.633 50.7959 51.544C52.4189 50.834 54.4059 48.291 56.0889 48.333C56.3179 48.339 56.4639 48.237 56.5999 48.087C56.8999 47.4 57.2269 46.484 58.5829 46.208C59.2399 46.075 59.3469 45.847 59.4399 45.397C59.7209 44.037 60.3479 43.174 61.6929 42.759L63.0549 42.651C62.9869 42.749 62.9549 42.815 62.9549 42.815C63.3899 42.407 64.7999 42.319 65.0709 42.31C65.3429 42.299 65.4519 41.992 65.4519 41.992L65.6049 41.398C65.8199 41.794 65.8979 42.124 66.4489 42.103C66.8889 42.084 67.4869 42.029 67.4869 42.029C67.4869 42.029 67.7739 41.975 68.1359 41.705C68.5029 41.432 69.8209 40.114 69.8209 40.114L67.9759 41.423C67.5089 41.732 66.8569 41.687 66.3239 41.626C66.3239 41.626 66.1109 41.572 65.8999 41.208C65.7599 40.962 65.4269 40.307 65.2369 39.913C65.0509 39.528 64.9959 39.332 64.8989 38.924C64.9979 39.187 65.2129 39.33 65.5349 39.281C65.6839 39.321 65.8659 39.8 66.0969 40.136C66.2929 40.362 66.9059 40.378 67.1959 40.228C67.4489 39.962 67.6459 39.488 67.7089 39.312C68.1339 39.366 68.5539 39.353 68.6349 38.663C68.3149 39.388 67.5509 38.799 67.0859 38.793C67.0089 38.757 66.7919 38.823 66.7629 38.903C66.7009 38.974 66.6899 39.127 66.6899 39.127C66.7169 39.125 67.0369 39.161 67.2509 39.234C66.7159 39.299 66.0679 39.276 65.7779 39.247C66.0519 39.134 66.5309 39.128 66.5309 39.128C66.5439 38.886 66.5639 38.79 66.2759 38.764C65.8129 38.722 65.0899 39.326 64.8779 38.642C64.8779 38.195 64.8739 37.748 64.8689 37.301C64.8689 37.301 64.8189 36.938 64.7939 36.702C64.9979 36.445 65.7409 36.603 65.9509 36.773C65.9509 36.773 65.1929 36.749 65.1429 37.019C65.1429 37.019 65.3599 36.935 65.6379 36.955C65.4879 37.22 66.0009 37.355 65.9859 37.034C66.1159 37.1 66.2089 37.22 66.2239 37.419C66.2239 37.419 66.2749 37.553 66.3139 37.425C66.3139 37.425 66.3569 36.846 66.3039 36.643C66.1939 36.213 65.0779 36.195 64.8169 36.533L64.7549 34.945C64.7549 34.945 64.9389 34.692 65.1419 34.434C65.3469 34.18 65.5679 34.327 65.5679 34.327C65.5679 34.327 67.1669 35.074 67.9399 35.226C69.3439 35.489 69.7669 33.875 69.7569 33.875C69.7919 34.12 69.7599 35.246 69.3509 35.799C70.0239 36.126 69.7369 37.724 69.6799 38.249L70.0419 38.209C70.0889 37.641 70.2219 37.203 70.3849 37.008C70.5649 36.794 70.8169 36.815 70.9259 36.934C71.2379 37.27 70.9399 38.101 70.7279 38.408C70.5239 38.703 70.6259 39.046 70.1099 38.928L69.8219 40.943C69.6859 41.946 70.9999 42.063 71.6929 42.101C72.3839 42.142 73.0789 42.397 73.0789 42.397C73.0329 42.347 72.9859 42.306 72.9369 42.266L74.4649 42.238C74.4649 42.238 75.1499 42.39 75.6139 42.712C76.0409 43.002 76.8819 43.394 76.9549 45.035C76.7099 45.065 76.0089 45.206 75.2739 45.648C76.6929 44.946 78.7839 45.577 79.8159 46.813C80.4519 47.574 80.3249 47.643 81.7449 47.791C83.1529 47.937 85.8829 50.224 86.8339 50.978C87.0299 51.133 87.4339 51.361 87.6869 51.159C88.1409 50.794 89.7669 50.781 90.0509 51.09C90.5359 51.64 90.8279 51.247 91.1669 51.496C91.4609 51.712 91.4189 51.765 91.6929 51.737L92.3379 51.721C92.5409 51.703 92.6989 52.393 91.9909 52.498C91.7829 52.53 91.5509 52.548 91.4329 52.558C90.7899 52.613 90.8419 52.055 90.8419 52.055C90.7369 52.045 90.7419 52.179 90.7419 52.179L89.9269 52.138C89.9269 52.138 89.8789 52.032 89.7889 51.687C89.6989 51.349 89.1849 51.322 89.1849 51.322C89.5379 51.409 89.5469 51.671 89.5469 51.671L89.7539 52.553C89.6489 52.58 89.5679 52.625 89.5379 52.642C89.3529 52.373 88.9959 52.461 88.8049 52.661C88.6069 52.105 87.9609 51.988 87.9609 51.988C88.4999 52.195 88.6359 53.02 88.6359 53.02C88.6359 53.02 88.8199 53.856 88.8639 54.169C88.9069 54.484 89.0899 54.524 89.0899 54.524C89.0609 54.193 89.1969 53.78 89.2499 53.67C89.1089 53.528 89.0519 53.433 88.9509 52.915C88.9249 52.694 89.2769 52.444 89.4649 52.793C89.5219 52.899 89.8119 53.377 89.8119 53.377C89.8119 53.377 90.0609 53.925 89.9919 54.154C90.0059 54.424 90.1139 54.18 90.1139 54.18C90.1139 54.18 90.2449 53.586 90.0369 53.326C89.9339 53.192 89.7919 52.999 89.6759 52.834C89.7819 52.727 89.9969 52.695 90.1229 52.784C90.3549 52.962 90.8079 53.098 90.8529 53.424C90.8659 53.513 90.9159 54.223 90.9159 54.223C91.2249 53.275 90.8829 53.034 90.8829 53.034C90.8829 53.034 90.6539 52.879 90.2769 52.636C90.2109 52.588 90.1459 52.564 90.0749 52.547L90.7869 52.493C90.8419 52.764 91.3489 52.697 91.3489 52.697C91.5779 52.638 91.5359 52.661 91.7599 52.754C91.9869 52.853 92.0759 53.147 91.9039 53.333L91.6299 53.607C91.8109 52.879 91.0719 52.857 91.0719 52.857C91.4859 53.021 91.4729 53.416 91.4729 53.416C91.4729 53.416 91.3339 54.147 91.2569 54.449C91.1789 54.752 90.9909 54.941 90.8529 54.917C90.7159 54.894 90.4979 55.052 90.4979 55.052L90.2359 55.288C89.9749 55.525 89.7919 55.306 89.7749 55.306C89.8649 55.118 89.9319 54.914 89.9849 54.713C89.9849 54.713 89.2839 55.883 88.6809 55.124C88.1659 54.79 86.4949 52.559 86.8319 52.083C86.2449 52.493 86.5199 52.979 86.7099 53.488C86.7099 53.488 84.1979 52.677 82.1309 52.233C81.1159 52.015 80.0189 51.97 79.3939 50.664C77.1729 50.356 74.5069 49.25 73.7299 46.977C73.8529 46.613 73.8429 46.317 73.6929 46.042C73.4339 45.571 72.8969 44.994 72.8969 44.994C72.8969 44.994 73.1249 45.434 73.4319 45.904C73.7359 46.374 73.5059 46.636 73.5059 46.636C73.5059 46.636 72.9569 47.595 72.4339 48.372C71.9059 49.145 71.2939 48.962 71.2939 48.962C71.2939 48.962 69.3629 48.886 68.8019 48.818C68.2399 48.751 68.0089 48.19 68.0089 48.19C68.0509 48.893 68.5859 49.085 68.8299 49.117C69.0709 49.155 70.6979 49.526 71.3729 49.724C72.0429 49.923 72.2359 49.568 72.2359 49.568C72.6949 48.965 72.9389 48.627 73.2799 47.949L74.2189 49.259C74.0359 49.79 73.3559 50.952 72.7719 51.207C72.5819 50.434 72.1499 49.857 72.1499 49.857C72.1499 49.857 72.8309 51.366 71.6259 52.818C71.6339 54.141 71.6599 55.138 71.6469 56.46C70.6439 57.211 69.1659 57.681 67.5219 57.681C65.8469 57.681 64.3479 57.191 63.3499 56.422L63.3819 52.85C62.8879 52.061 61.8819 51.053 62.8679 49.775C62.8679 49.775 62.1089 50.153 61.9199 50.734C61.6879 50.386 61.4609 49.979 61.4759 49.69C62.0339 49.021 62.3599 48.078 62.3599 48.078C62.3789 48.117 63.0789 49.05 63.5959 49.595C64.1179 50.137 64.5859 50.03 64.8749 49.838C65.1609 49.644 66.6399 48.838 67.0819 48.62C67.5269 48.397 67.5689 47.784 67.5689 47.784C67.3909 48.121 67.2109 48.464 66.7859 48.54C66.6069 48.569 66.4059 48.575 65.3339 48.962C64.2659 49.342 63.9619 49.126 63.7539 48.982C63.5449 48.827 62.6519 47.96 62.1699 47.256C61.6919 46.554 61.8589 46.319 61.8589 46.319L62.7439 44.765C62.7439 44.765 62.0229 45.862 61.5139 46.153C61.0059 46.444 59.9989 46.665 59.9989 46.665L61.5809 46.672L62.1699 47.824C61.8539 49.597 59.3949 50.402 58.6189 50.587C58.2679 51.32 57.8169 51.528 57.0309 51.535C56.5599 52.625 53.0139 53.178 52.4029 53.297C52.4779 52.467 51.3539 52.257 51.3539 52.257ZM65.7849 39.358C66.2919 39.478 66.7269 39.421 67.1519 39.414C67.3409 39.414 67.4259 39.357 67.5599 39.297C67.3559 39.719 67.1789 39.821 67.0219 39.884C66.8639 39.947 66.5109 39.944 66.3519 39.871C66.2339 39.817 65.9069 39.485 65.7849 39.358ZM63.0529 54.474L63.0989 54.929L57.0959 52.449C57.3299 52.361 57.4219 52.312 57.4219 52.312C57.4219 52.312 57.9369 52.352 58.3179 52.077L63.0529 54.474ZM58.9219 51.226C59.0929 51.013 59.2879 50.799 59.5369 50.681L62.9189 53.222C62.9519 53.303 62.9749 53.699 62.9869 53.813L58.9219 51.226ZM53.1319 53.631C53.7629 53.375 54.4299 53.174 55.0919 53.02L63.1549 55.467L63.1679 55.607C63.0979 55.675 63.0419 55.742 62.9959 55.804L53.1319 53.631ZM61.6219 57.215L62.7879 57.146L62.7639 57.532L61.5849 57.689C61.4869 57.566 61.3849 57.453 61.2719 57.36C61.2719 57.36 61.2419 57.375 61.1049 57.192C60.9689 57.015 60.4989 56.389 59.4659 56.183C58.8769 56.07 58.6149 55.906 58.4879 55.753L62.8399 56.279L62.8199 56.652L60.9679 56.549C60.9679 56.548 61.3419 56.809 61.6219 57.215ZM62.7309 58.052L62.7049 58.469L62.1359 58.65C62.0949 58.522 62.0039 58.352 61.9409 58.234L62.7309 58.052ZM43.4869 62.599C44.0939 62.402 44.6139 62.275 45.2449 62.124C44.8359 62.401 44.3099 62.838 44.3189 63.382C44.3489 64.331 43.7309 64.482 43.4279 64.137C42.8139 63.396 43.4869 62.599 43.4869 62.599ZM47.2389 75.034C47.4059 75.156 47.3789 75.491 47.3789 75.491C47.3789 75.491 46.8159 75.532 46.3219 75.261C45.8229 74.99 45.8759 74.627 45.9789 74.517C46.0879 74.415 46.0609 74.149 46.0609 74.149C46.0429 74.056 45.9919 73.578 45.8269 73.648C45.8269 73.648 45.7359 73.537 45.8739 73.194C45.9969 72.877 45.9329 71.861 45.9469 71.323C46.3369 70.734 46.8159 70.412 46.8159 70.412C46.8159 70.412 46.7759 72.887 46.8139 73.083C46.8519 73.282 46.9669 73.675 46.9199 73.844C46.8819 73.994 46.9249 74.358 46.9489 74.525C46.9699 74.807 47.1039 74.938 47.2389 75.034ZM52.5199 62.164C53.1069 61.289 53.0379 59.934 53.0379 59.934C53.0039 60.358 52.3449 61.545 52.0579 62.104C51.7739 62.656 52.2369 62.855 52.2369 62.855C52.2369 62.855 53.0959 63.488 53.4899 63.791C53.6279 63.895 53.7409 64.02 53.8339 64.145L52.7729 64.698C52.7299 64.714 52.6139 64.81 52.5859 64.832C52.0369 65.32 50.9699 65.938 50.0139 65.851C50.3089 66.892 49.7409 67.211 49.5939 67.326C49.5939 67.326 49.7839 68.202 49.5109 68.7C49.2889 68.954 49.1969 68.262 49.1829 68.126C49.1379 68.023 49.0339 68.126 49.0339 68.126C49.0339 68.126 49.1019 68.719 48.7879 68.988C48.5209 69.218 48.5089 69.012 48.5249 68.775C50.0829 66.319 48.6589 64.009 49.0179 62.601C48.5789 62.916 49.0769 65.477 48.8499 66.742C48.7739 68.126 46.2929 70.34 45.7209 70.959C45.1499 71.577 45.1779 71.968 45.1779 72.042C45.1779 72.118 45.2079 74.539 45.2239 74.707C45.2369 74.871 45.1949 74.889 45.0559 75.264C44.9209 75.643 45.1609 76.139 45.2959 76.167C45.5289 76.219 45.6159 76.624 45.6139 76.852C44.9489 76.853 44.5949 76.886 44.3819 76.605C44.0869 76.218 44.1679 75.789 44.1379 75.134L43.8059 75.218C43.6709 74.933 43.6129 74.782 43.9149 74.493C44.2139 74.214 44.2489 74.004 44.2489 74.004L44.3129 71.344L44.2509 71.015L44.1639 70.603C44.1639 70.408 44.1359 70.367 44.3279 70.159C45.5439 69.124 45.7139 68.575 45.1179 66.789C44.5779 64.924 45.3119 63.838 45.3119 63.838C44.9119 64.238 44.7329 64.578 44.6419 64.92C44.5679 65.201 44.4529 65.426 44.3259 65.589C43.7009 66.391 42.0759 66.117 42.1109 65.016C42.2459 65.112 42.4979 65.126 42.6299 65.039C42.1409 64.6 42.2869 63.245 42.9759 62.979C42.1869 64.673 44.2129 65.5 44.4989 63.88C44.6209 63.039 44.9049 62.722 45.0869 62.543C45.2689 62.359 47.5269 60.963 47.5269 60.963L47.3249 61.057C47.6659 60.839 48.0389 60.583 48.4099 60.312C49.1969 59.864 50.6999 58.902 51.9069 57.484C52.9319 56.279 53.3369 55.121 54.6009 55.495C55.8199 55.756 57.6999 56.822 58.1549 56.997L58.3309 57.087L57.7959 57.122C57.2049 57.151 56.9659 56.746 56.9659 56.746C56.9339 57.228 57.5239 57.5 58.3679 57.679C59.1949 57.859 59.4799 58.538 59.4799 58.538C60.1729 57.756 60.8969 58.444 60.8969 58.444C60.6399 57.874 60.1279 57.827 60.1279 57.827C60.0149 57.6 59.8519 57.44 59.6599 57.328L59.0649 57.114C58.5239 56.64 56.8669 56.017 55.9369 55.446L58.4029 55.741C58.4579 56.023 58.6519 56.504 59.3309 56.731C60.3259 57.059 60.2869 57.608 60.2869 57.608C60.6409 57.47 61.0899 57.487 61.3009 57.755C61.5149 58.1 61.7269 58.388 61.7269 58.388C61.7269 58.388 61.9359 58.673 61.9059 58.818C61.8729 58.974 61.8409 59.257 62.2799 59.892C62.7159 60.526 63.0499 61.861 62.6129 61.564C62.2359 61.203 62.1009 61.079 62.1009 61.367C62.1009 61.654 62.1829 61.683 62.3489 61.599C62.8769 61.499 62.5259 62.49 61.9489 61.953C61.8759 61.887 61.4439 61.413 61.3679 61.483C61.3409 61.505 61.3009 61.641 61.4969 61.851C61.4969 61.851 62.5689 62.795 62.7949 61.818C63.1349 61.673 63.0259 61.297 62.9519 61.033C64.7099 59.952 69.2219 60.135 71.1359 60.46C71.0989 60.581 71.1209 60.512 71.0959 60.634C71.0119 61.161 70.9139 61.682 70.9409 62.215C70.9719 62.825 71.9029 62.726 72.2829 62.674C72.7919 63.196 73.6029 62.943 73.6639 62.903C73.6879 63.007 73.6299 63.171 73.6229 63.23C73.5989 63.43 73.6759 63.611 74.0249 63.609C75.6879 63.736 75.3489 62.823 75.2889 62.668C75.2379 62.541 75.1399 62.398 75.3649 62.205C75.5719 62.469 75.6709 62.673 75.6709 62.991C75.6709 64.598 72.1779 65.898 67.8729 65.898C63.5629 65.898 60.0739 64.598 60.0739 62.991C60.0739 62.587 60.3019 62.193 60.7109 61.84C60.8029 61.88 60.9329 61.972 60.9409 62.197C60.9629 62.871 62.1589 63.085 62.5009 62.334C62.5009 62.334 62.0039 62.766 61.5539 62.516C61.0989 62.267 61.1439 62.02 61.1439 61.95C61.1439 61.884 61.0489 61.343 59.1449 61.36C59.1049 60.871 58.8029 60.614 58.8029 60.614C59.3899 61.73 58.3379 62.766 58.3379 62.766C56.2449 61.023 57.8579 58.779 57.8579 58.779C57.4719 59.207 57.0639 60.001 56.9129 60.365C55.8209 60.741 56.6619 61.936 55.3869 62.935L55.9309 64.157C55.9309 64.157 55.9799 64.303 56.0959 64.471L59.8889 62C59.5959 62.347 59.4759 62.742 59.5499 63.196L56.7539 65.345C56.6149 65.013 56.3039 64.694 56.3039 64.694C56.8169 65.402 56.4239 66.199 56.4239 66.199C56.4239 66.199 56.6339 67.388 56.6819 67.69C56.7189 67.943 56.7359 68.282 56.7739 68.479C56.8089 68.66 56.9129 69.014 56.8709 69.167C56.8349 69.306 56.8759 69.634 56.8959 69.784C56.9319 70.282 57.3279 70.149 57.2849 70.661C57.2849 70.661 56.7759 70.699 56.3279 70.452C55.8769 70.207 55.9239 69.879 56.0179 69.778C56.1159 69.688 56.0919 69.445 56.0919 69.445C56.0759 69.361 56.0299 68.927 55.8789 68.991C55.8789 68.991 55.7979 68.891 55.9219 68.58C56.1559 68.516 55.9219 66.998 55.9139 66.891C55.8869 66.532 55.8149 66.154 55.7169 66.063C55.5679 65.93 55.2619 65.765 55.1909 65.329C55.2189 64.982 54.9479 64.666 54.9479 64.666C54.9479 64.666 52.3209 62.645 52.5199 62.164ZM60.3799 64.953L59.1869 66.255L57.7549 66.258L60.0409 64.118L60.3799 64.953ZM54.2389 68.604C54.2409 68.285 54.4159 68.218 54.5149 67.995C54.7609 67.442 54.4789 65.436 54.4499 64.737C54.4499 64.737 54.7819 64.766 54.7999 65.221C54.8189 65.45 54.9459 65.673 55.0949 65.855C55.1009 66.364 55.1539 68.264 55.1639 68.376C55.1749 68.508 55.0799 68.528 54.9679 68.831C54.7339 69.49 55.3949 69.466 55.3889 70.098C55.0629 70.099 54.7899 70.198 54.5699 69.908L54.5759 69.899C54.3929 69.634 54.4859 69.123 54.4969 68.8C54.1979 68.823 54.2379 68.896 54.2389 68.604ZM56.5669 78.188C56.5579 78.25 56.5349 78.302 56.5019 78.34C56.4099 78.443 55.9039 78.399 55.7519 78.399C55.4859 78.399 55.4759 78.165 55.4759 77.968H55.4739V76.075L56.5669 75.564V78.188ZM80.1189 78.268C80.1119 78.337 80.0879 78.395 80.0529 78.435C79.9589 78.539 79.4539 78.495 79.3019 78.495C79.1599 78.495 79.0389 78.387 79.0269 78.244V76.05L80.1189 75.566V78.268ZM82.9749 72.764C83.9859 74.242 80.9429 74.638 80.0899 74.69H55.4809C54.4439 74.653 51.4929 74.403 52.6149 72.764L54.3599 70.215C54.5909 70.536 54.9909 70.483 55.5609 70.409C55.6409 69.134 54.8849 69.508 55.1399 68.879L55.7719 67.903C55.7699 67.978 55.7669 68.053 55.7619 68.127C55.7479 68.334 55.7209 68.52 55.6719 68.629C55.5179 68.979 55.6289 69.06 55.8639 69.237C55.8639 69.237 55.9439 69.427 55.9029 69.577C55.8639 69.727 55.7529 69.848 55.8369 70.613C55.9199 71.378 57.5699 71.266 57.5699 71.266C57.6239 70.909 57.5229 70.136 57.3059 70.001C57.1089 69.872 56.9729 69.506 57.0559 69.304C57.1259 69.046 57.0609 68.809 57.0009 68.625C56.9439 67.996 56.8539 67.187 56.7589 66.706L60.9809 66.444L61.6399 68.209C61.6299 68.209 61.6179 68.208 61.6089 68.208C60.8069 68.219 59.3969 68.413 59.1129 69.302C59.0029 69.647 59.1449 70.301 59.1909 70.674L59.2789 70.954C58.3369 71.195 57.7589 71.593 57.7589 72.081C57.7589 74.072 65.2819 74.07 65.2819 72.081C65.2819 71.717 64.9469 71.402 64.3859 71.164C64.5439 71.031 64.6849 70.882 64.7929 70.723C64.9889 70.761 65.1899 70.794 65.4059 70.812C65.6009 70.828 65.8169 70.83 66.0389 70.828C66.2409 71.451 66.6039 71.637 66.6039 71.637C66.6119 72.64 67.3149 73.479 68.4509 73.677C68.4929 74.296 69.6149 74.311 70.3179 74.312C71.2569 74.313 72.3549 74.171 72.4279 73.483C72.9569 73.329 73.5129 72.98 73.7469 72.211C73.8769 72.18 74.0969 72.107 74.2929 71.972C74.6679 71.707 75.0309 70.761 75.2369 70.21C75.4079 70.429 75.7389 70.603 76.3109 70.608C76.4209 70.602 76.5269 70.656 76.5569 70.656C76.9219 70.811 77.3029 70.825 77.6919 70.761C78.2009 70.677 78.7029 70.17 78.6859 69.61C78.6769 69.47 78.5979 69.454 78.8799 69.206C79.1599 68.961 79.2599 68.556 78.9549 67.958C78.6769 67.417 79.0349 67.058 79.1049 66.997L79.1249 67.04L79.1659 67.006L82.4739 71.992H82.4469L82.9749 72.764ZM85.1319 69.919L80.9559 66.735C81.2069 66.981 83.2349 67.256 83.7909 67.069L85.3819 68.094C85.1629 68.781 85.0989 69.387 85.1319 69.919ZM83.1339 77.01C82.9569 77.004 82.8159 76.99 82.7839 76.794C82.7799 76.773 82.7669 76.245 82.9609 76.442C83.0409 76.517 83.2539 76.457 83.3219 76.436C83.2609 76.618 83.1839 76.822 83.1339 77.01ZM83.4679 77.354C83.2649 77.294 83.3479 77.044 83.3479 77.044L83.3469 77.043L83.3549 77.01C83.3549 76.843 83.5809 76.763 83.7209 76.794C83.6919 76.959 83.7059 77.14 83.9639 77.277C83.9639 77.277 83.8119 76.672 84.0109 76.522C84.2069 76.367 84.2809 76.336 84.2809 76.336C84.2809 76.336 84.5379 76.55 84.5719 76.7C84.5719 76.7 84.4659 75.925 84.1629 76.062C83.8579 76.158 83.4019 76.532 83.3259 76.422C83.0589 76.328 83.2389 75.818 83.4629 75.818C83.4629 75.818 83.9029 75.833 84.0679 75.818C84.2369 75.804 84.5449 75.687 84.6809 75.871C84.9429 76.218 85.4839 75.962 85.6899 75.646C85.8079 75.67 86.1439 75.635 86.3319 75.968C86.3319 75.968 86.2829 75.472 85.9449 75.239C86.3289 74.665 86.8149 73.95 87.0809 73.938C87.6459 73.908 87.2939 74.946 87.0389 75.546C86.7209 76.295 85.9669 76.724 85.5919 77.119C85.4079 77.393 84.9099 76.949 84.9099 76.949C84.6479 76.781 84.3509 77.009 84.3969 77.266C84.3969 77.426 84.4329 77.39 84.3289 77.415C84.2289 77.528 83.6039 77.393 83.4679 77.354ZM84.8669 80.096C84.5399 80.04 84.6419 79.618 84.9069 79.634C85.7889 79.684 86.2069 79.706 86.8489 79.567C86.8209 79.698 86.7979 79.933 86.9649 80.132C85.7769 80.273 84.9609 80.11 84.8669 80.096ZM89.8209 79.18C89.6199 79.062 89.3859 78.848 89.3539 78.607C89.3129 78.254 88.9269 79.002 89.3569 79.44C88.6849 79.817 88.0759 79.983 87.4149 80.089C87.2719 79.871 87.2179 79.684 87.3199 79.422C89.1939 78.931 90.3619 77.273 90.3619 77.273C90.5209 77.663 90.9839 78.021 91.1819 77.94C90.5929 78.676 90.3449 78.809 89.8209 79.18ZM91.7139 77.329L91.6779 77.317C91.4009 77.267 90.8939 76.802 90.8309 76.69C91.1609 76.254 91.4259 75.79 91.6369 75.319C91.8159 75.675 92.3019 75.895 92.6309 75.84C92.3479 76.409 92.0369 76.901 91.7139 77.329ZM93.0749 74.814C92.6719 75.034 92.1019 74.661 92.0409 74.436C92.2569 73.796 92.3059 73.034 92.3389 72.816C92.3389 72.816 93.0049 73.231 93.5969 72.932C93.4629 73.523 93.2519 74.368 93.0749 74.814ZM93.8119 71.465C93.6829 72.383 92.4169 72.123 92.4289 71.965C92.4929 71.056 92.4769 70.09 92.3859 69.155C93.1329 69.245 93.5209 68.985 93.7489 68.762C93.8649 69.656 93.8929 70.507 93.8119 71.465Z" fill="#E90000"/>
</g>
<mask id="mask27_93_1615" style="mask-type:luminance" maskUnits="userSpaceOnUse" x="-17" y="-87" width="288" height="288">
<path d="M271 -87H-17V201H271V-87Z" fill="white"/>
</mask>
<g mask="url(#mask27_93_1615)">
<path d="M58.984 59.437C59.203 59.061 59.007 58.562 58.742 58.262C58.819 58.429 58.895 58.653 58.697 59.107C58.502 59.558 58.908 60.115 58.908 60.115C58.908 60.115 58.774 59.827 58.984 59.437Z" fill="#E90000"/>
</g>
<mask id="mask28_93_1615" style="mask-type:luminance" maskUnits="userSpaceOnUse" x="-17" y="-87" width="288" height="288">
<path d="M271 -87H-17V201H271V-87Z" fill="white"/>
</mask>
<g mask="url(#mask28_93_1615)">
<path d="M60.0251 59.51L60.0591 59.501C59.9481 59.636 60.0501 59.837 60.2261 59.837C60.3651 59.837 60.4741 59.687 60.4211 59.562C60.5221 59.628 60.5781 59.707 60.5781 59.707C60.5131 59.987 60.0521 60.06 59.8551 59.838C59.9501 60.048 60.1781 60.104 60.3451 60.081C60.4541 60.062 60.5291 59.997 60.5551 59.982C60.6971 59.909 60.7271 60.036 60.8571 59.945C60.6031 59.198 60.0671 59.317 59.8871 59.406C59.7031 59.502 59.6011 59.406 59.6011 59.406C59.6601 59.588 59.7001 59.621 60.0251 59.51Z" fill="#E90000"/>
</g>
<mask id="mask29_93_1615" style="mask-type:luminance" maskUnits="userSpaceOnUse" x="-17" y="-87" width="288" height="288">
<path d="M271 -87H-17V201H271V-87Z" fill="white"/>
</mask>
<g mask="url(#mask29_93_1615)">
<path d="M55.2919 62.584C55.2919 62.584 54.9179 61.983 55.1899 61.815C55.9269 61.364 55.6119 59.136 55.6119 59.136C55.5809 60.687 55.3549 61.485 54.7089 61.561C54.0599 61.638 54.0449 61.833 54.0449 61.833C54.6009 61.587 55.0409 62.328 55.1129 62.433C55.1539 62.49 55.2269 62.557 55.2919 62.584Z" fill="#E90000"/>
</g>
<mask id="mask30_93_1615" style="mask-type:luminance" maskUnits="userSpaceOnUse" x="-17" y="-87" width="288" height="288">
<path d="M271 -87H-17V201H271V-87Z" fill="white"/>
</mask>
<g mask="url(#mask30_93_1615)">
<path d="M65.741 43.867C66.123 43.85 66.3851 43.813 66.5511 43.811C66.7521 43.809 66.8361 43.772 67.0781 44.01C67.1511 44.082 67.3891 44.407 67.3511 44.206C67.1861 43.699 67.1251 43.132 66.4201 43.314C65.2691 43.612 64.7861 43.414 64.2241 43.095C64.0731 43.009 64.0871 43.077 64.2021 43.214C64.4491 43.511 65.119 43.889 65.741 43.867Z" fill="#E90000"/>
</g>
<mask id="mask31_93_1615" style="mask-type:luminance" maskUnits="userSpaceOnUse" x="-17" y="-87" width="288" height="288">
<path d="M271 -87H-17V201H271V-87Z" fill="white"/>
</mask>
<g mask="url(#mask31_93_1615)">
<path d="M67.145 50.256C66.601 50.502 64.386 51.744 64.548 52.413L64.676 53.358C64.775 54.092 64.778 53.608 64.816 53.289C64.895 52.626 65.174 52.239 65.523 51.939C65.762 51.734 67.088 50.899 67.434 50.862C67.78 50.899 69.104 51.732 69.345 51.94C69.696 52.241 69.97 52.625 70.051 53.289C70.091 53.611 70.093 54.092 70.192 53.358L70.319 52.413C70.482 51.744 68.267 50.501 67.723 50.256C67.723 50.256 67.591 50.2 67.434 50.2C67.276 50.199 67.145 50.256 67.145 50.256Z" fill="#E90000"/>
</g>
</g>
</svg>
